<svg id="svg" version="1.1" xmlns="http://www.w3.org/2000/svg" xmlns:xlink="http://www.w3.org/1999/xlink" width="400" height="382.38172920065256" viewBox="0, 0, 400,382.38172920065256"><g id="svgg"><path id="path0" d="M66.061 0.310 C 65.272 0.375,64.627 0.575,64.627 0.754 C 64.627 0.933,63.897 1.203,63.004 1.354 C 62.111 1.505,61.101 1.950,60.760 2.344 C 60.419 2.737,59.955 3.059,59.729 3.059 C 59.336 3.059,55.832 6.308,55.832 6.673 C 55.832 6.770,55.402 7.483,54.876 8.258 C 54.350 9.033,53.920 10.073,53.920 10.570 C 53.920 11.066,53.748 11.472,53.537 11.472 C 53.327 11.472,53.155 12.075,53.155 12.811 C 53.155 13.547,52.983 14.149,52.772 14.149 C 52.543 14.149,52.390 15.697,52.390 18.027 C 52.390 21.191,52.274 21.989,51.758 22.366 C 51.118 22.835,51.378 23.907,52.034 23.502 C 52.524 23.199,52.498 55.456,52.008 56.214 C 51.717 56.664,51.636 56.675,51.631 56.263 C 51.626 55.831,50.566 55.781,45.602 55.980 C 42.290 56.112,39.235 56.213,38.815 56.205 C 38.394 56.197,36.544 56.152,34.704 56.106 C 32.863 56.060,31.358 56.125,31.358 56.249 C 31.358 56.374,27.359 56.495,22.471 56.518 C 13.520 56.561,10.892 56.753,10.496 57.395 C 10.377 57.587,9.946 57.744,9.538 57.744 C 9.129 57.744,8.795 57.889,8.795 58.066 C 8.795 58.243,8.192 58.713,7.455 59.110 C 6.717 59.507,6.020 60.128,5.906 60.489 C 5.791 60.851,5.362 61.253,4.952 61.383 C 4.542 61.513,4.207 61.934,4.207 62.318 C 4.207 63.447,3.104 63.602,2.831 62.510 C 2.700 61.992,2.441 61.568,2.253 61.568 C 1.798 61.568,1.817 61.680,2.483 62.958 C 3.147 64.230,3.220 65.010,2.677 65.010 C 2.467 65.010,2.294 65.253,2.294 65.551 C 2.294 65.849,2.080 66.165,1.818 66.252 C 1.466 66.369,1.306 68.350,1.205 73.836 C 1.127 78.101,0.903 81.465,0.679 81.740 C 0.412 82.067,0.420 82.376,0.704 82.718 C 1.000 83.074,1.123 106.490,1.134 164.045 C 1.142 208.499,1.221 244.943,1.308 245.030 C 1.638 245.360,2.347 243.496,2.553 241.761 C 2.828 239.439,3.217 239.002,4.953 239.070 C 6.622 239.136,7.312 238.806,7.032 238.076 C 6.921 237.789,7.018 237.438,7.246 237.297 C 7.474 237.156,7.563 236.883,7.443 236.689 C 7.324 236.496,7.471 236.432,7.771 236.547 C 8.179 236.703,8.269 236.514,8.131 235.791 C 7.976 234.978,8.072 234.851,8.745 234.981 C 9.185 235.065,9.647 234.968,9.773 234.764 C 9.899 234.560,10.591 234.504,11.311 234.639 C 12.328 234.830,12.620 234.757,12.620 234.312 C 12.620 233.968,13.078 233.672,13.767 233.570 C 14.398 233.478,14.914 233.544,14.914 233.718 C 14.914 234.310,17.165 234.045,17.519 233.412 C 17.746 233.006,17.957 232.933,18.124 233.204 C 18.265 233.432,18.625 233.525,18.924 233.410 C 19.356 233.244,19.375 233.055,19.016 232.480 C 18.669 231.923,18.673 231.652,19.034 231.291 C 19.404 230.921,19.503 230.954,19.503 231.449 C 19.503 232.570,21.059 232.088,21.298 230.892 C 21.646 229.150,22.176 229.682,22.237 231.836 L 22.295 233.843 22.540 232.122 C 22.675 231.176,22.828 228.595,22.881 226.386 C 22.933 224.178,23.150 221.716,23.363 220.916 C 23.576 220.116,23.635 218.695,23.495 217.758 C 23.338 216.711,23.400 215.860,23.657 215.551 C 24.271 214.811,24.403 201.513,24.441 136.422 L 24.474 78.771 77.782 78.783 C 111.327 78.790,131.423 78.658,131.988 78.424 C 132.483 78.221,134.236 77.942,135.885 77.806 C 138.956 77.551,139.194 77.012,136.520 76.365 C 135.442 76.104,135.343 72.682,136.274 67.878 C 136.356 67.457,136.444 66.984,136.471 66.826 C 136.498 66.668,136.728 66.582,136.983 66.635 C 137.237 66.687,137.487 66.386,137.539 65.966 C 137.858 63.373,138.193 61.950,138.482 61.950 C 138.665 61.950,138.815 61.690,138.815 61.371 C 138.815 61.053,139.030 60.440,139.293 60.010 C 139.699 59.344,139.660 59.145,139.028 58.677 C 138.306 58.141,138.309 58.126,139.149 58.126 C 139.624 58.126,140.326 57.958,140.709 57.753 C 141.093 57.548,141.952 57.338,142.618 57.288 C 143.285 57.237,144.035 56.945,144.286 56.638 C 144.666 56.174,144.600 56.118,143.881 56.303 C 143.408 56.425,143.021 56.395,143.021 56.237 C 143.021 56.078,142.505 55.933,141.874 55.916 C 141.243 55.898,140.727 56.041,140.727 56.233 C 140.727 56.431,139.438 56.503,137.763 56.398 C 130.065 55.917,78.741 55.767,78.191 56.224 C 77.748 56.592,77.629 56.589,77.629 56.214 C 77.629 55.854,77.501 55.844,77.104 56.173 C 76.211 56.915,76.099 54.998,76.099 38.937 L 76.099 23.667 87.366 23.757 C 97.234 23.835,98.652 23.921,98.794 24.447 C 98.925 24.936,98.963 24.924,99.000 24.379 C 99.035 23.847,99.398 23.709,100.765 23.709 C 102.144 23.709,102.488 23.842,102.498 24.379 C 102.509 25.016,102.534 25.016,103.018 24.379 C 103.723 23.450,112.597 23.365,112.949 24.283 C 113.070 24.598,113.519 24.857,113.946 24.857 C 114.382 24.857,114.723 24.605,114.723 24.283 C 114.723 23.920,115.109 23.698,115.774 23.678 C 116.353 23.660,117.236 23.601,117.738 23.546 C 118.350 23.480,118.709 23.675,118.831 24.138 C 118.989 24.745,119.080 24.761,119.571 24.269 C 120.456 23.385,128.040 23.471,128.700 24.374 C 129.161 25.004,129.222 25.004,129.919 24.374 C 130.820 23.558,131.166 23.533,131.166 24.283 C 131.166 24.598,131.338 24.857,131.549 24.857 C 131.759 24.857,131.931 24.598,131.931 24.283 C 131.931 23.538,132.931 23.538,133.217 24.283 C 133.499 25.019,134.500 25.019,135.236 24.283 C 135.991 23.529,136.424 23.558,136.639 24.379 C 136.805 25.016,136.816 25.016,136.858 24.379 C 136.913 23.553,138.432 23.461,138.432 24.283 C 138.432 25.025,139.728 25.025,140.344 24.283 C 141.066 23.413,144.819 23.489,145.052 24.379 C 145.202 24.953,145.233 24.959,145.271 24.419 C 145.344 23.388,146.449 23.227,146.822 24.194 C 147.115 24.954,147.181 24.974,147.421 24.379 C 147.797 23.450,150.163 23.450,150.406 24.379 C 150.572 25.016,150.583 25.016,150.625 24.379 C 150.680 23.547,155.080 23.369,155.355 24.187 C 155.479 24.556,155.669 24.539,156.181 24.116 C 156.759 23.639,156.896 23.639,157.228 24.116 C 157.520 24.535,157.657 24.552,157.805 24.187 C 158.050 23.582,159.171 23.568,159.765 24.163 C 160.447 24.845,161.759 24.943,161.759 24.312 C 161.759 24.016,161.544 23.678,161.281 23.561 C 161.018 23.445,161.147 23.387,161.568 23.434 C 161.989 23.480,162.445 23.862,162.581 24.283 C 162.815 25.002,162.832 24.997,162.868 24.199 C 162.910 23.269,163.885 23.374,164.649 24.391 C 165.123 25.023,166.791 24.879,167.019 24.187 C 167.123 23.873,166.765 23.709,165.975 23.709 C 165.271 23.709,164.871 23.551,165.010 23.327 C 165.140 23.117,166.337 22.945,167.671 22.945 C 170.400 22.945,171.829 21.606,171.328 19.521 C 170.987 18.102,171.214 14.068,171.650 13.799 C 171.861 13.668,172.122 12.832,172.229 11.941 C 172.337 11.049,172.538 10.137,172.675 9.914 C 172.813 9.691,172.999 8.460,173.088 7.179 C 173.180 5.860,173.475 4.669,173.769 4.433 C 174.433 3.898,174.906 1.928,174.386 1.864 C 174.172 1.838,173.867 1.772,173.709 1.717 C 173.552 1.663,173.037 1.492,172.566 1.339 C 172.096 1.186,171.805 0.908,171.920 0.721 C 172.036 0.533,170.292 0.368,167.996 0.351 C 154.440 0.246,67.248 0.212,66.061 0.310 M134.718 78.677 C 135.935 78.753,137.828 78.752,138.924 78.675 C 140.021 78.598,139.025 78.536,136.711 78.537 C 134.398 78.538,133.501 78.601,134.718 78.677 M64.354 146.272 C 64.357 147.323,64.431 147.708,64.519 147.127 C 64.607 146.545,64.605 145.685,64.514 145.215 C 64.423 144.744,64.351 145.220,64.354 146.272 M317.106 323.901 C 317.106 324.637,317.185 324.938,317.281 324.570 C 317.377 324.202,317.377 323.599,317.281 323.231 C 317.185 322.863,317.106 323.164,317.106 323.901 M317.184 337.667 C 317.184 343.241,317.238 345.521,317.303 342.734 C 317.368 339.947,317.368 335.387,317.303 332.600 C 317.238 329.814,317.184 332.094,317.184 337.667 M317.155 351.816 C 317.155 353.815,317.220 354.632,317.298 353.633 C 317.377 352.634,317.377 350.999,317.298 350.000 C 317.220 349.001,317.155 349.818,317.155 351.816 M338.924 353.537 C 338.927 354.589,339.001 354.974,339.089 354.392 C 339.177 353.811,339.174 352.951,339.084 352.480 C 338.993 352.010,338.921 352.486,338.924 353.537 M338.929 358.700 C 338.929 359.857,339.001 360.330,339.088 359.751 C 339.176 359.173,339.176 358.227,339.088 357.648 C 339.001 357.070,338.929 357.543,338.929 358.700 " stroke="none" fill="#d25f45" fill-rule="evenodd"></path><path id="path1" d="M195.985 0.286 C 183.155 0.339,172.400 0.485,172.084 0.612 C 171.447 0.867,172.959 1.689,174.386 1.864 C 174.906 1.928,174.433 3.898,173.769 4.433 C 173.475 4.669,173.180 5.860,173.088 7.179 C 172.999 8.460,172.813 9.691,172.675 9.914 C 172.538 10.137,172.337 11.049,172.229 11.941 C 172.122 12.832,171.861 13.668,171.650 13.799 C 171.214 14.068,170.987 18.102,171.328 19.521 C 171.829 21.606,170.400 22.945,167.671 22.945 C 166.337 22.945,165.140 23.117,165.010 23.327 C 164.857 23.574,166.461 23.709,169.544 23.709 C 173.003 23.709,174.368 23.578,174.508 23.231 C 174.662 22.849,174.707 22.849,174.731 23.231 C 174.754 23.604,177.758 23.709,188.390 23.709 C 200.889 23.709,202.059 23.764,202.505 24.374 C 202.966 25.004,203.027 25.004,203.724 24.374 C 204.775 23.422,211.472 23.385,211.472 24.330 C 211.472 24.801,211.594 24.849,211.979 24.530 C 212.349 24.222,212.612 24.235,212.960 24.579 C 213.336 24.950,213.539 24.908,213.930 24.379 C 214.638 23.420,217.968 23.420,217.985 24.379 C 217.997 25.016,218.022 25.016,218.506 24.379 C 219.188 23.479,223.327 23.397,223.327 24.283 C 223.327 25.026,224.051 25.026,224.336 24.283 C 224.632 23.510,225.143 23.558,225.358 24.379 C 225.524 25.016,225.535 25.016,225.577 24.379 C 225.630 23.577,228.096 23.413,228.458 24.187 C 228.636 24.570,228.725 24.570,228.904 24.187 C 229.217 23.515,229.847 23.593,230.443 24.379 C 230.927 25.016,230.951 25.016,230.963 24.379 C 230.974 23.763,231.638 23.708,239.293 23.692 C 266.428 23.633,276.798 23.529,276.665 23.314 C 276.583 23.181,276.758 23.072,277.055 23.072 C 277.352 23.072,277.491 23.241,277.364 23.447 C 277.219 23.681,277.787 23.748,278.879 23.625 C 280.254 23.470,280.583 23.539,280.425 23.951 C 280.314 24.239,280.400 24.474,280.616 24.474 C 280.831 24.474,281.071 24.282,281.149 24.047 C 281.228 23.812,281.995 23.578,282.854 23.526 C 283.713 23.474,284.636 23.295,284.906 23.129 C 285.226 22.931,285.301 22.979,285.123 23.268 C 284.959 23.532,285.098 23.709,285.468 23.709 C 285.809 23.709,286.004 23.574,285.902 23.409 C 285.799 23.244,286.047 23.108,286.453 23.108 C 286.858 23.108,287.189 23.244,287.189 23.409 C 287.189 23.899,288.256 23.751,288.467 23.231 C 288.613 22.872,288.761 22.895,289.066 23.327 C 289.289 23.642,289.475 23.728,289.479 23.518 C 289.483 23.296,290.752 23.136,292.508 23.136 C 294.170 23.136,295.473 23.228,295.403 23.341 C 295.333 23.453,295.595 23.545,295.985 23.545 C 296.374 23.545,296.610 23.410,296.508 23.245 C 296.244 22.819,297.048 22.873,297.922 23.340 C 298.444 23.620,298.662 23.613,298.662 23.318 C 298.662 23.088,298.799 22.984,298.967 23.088 C 299.391 23.350,300.421 22.665,300.095 22.338 C 299.776 22.019,286.908 21.464,279.178 21.435 C 275.283 21.421,273.772 21.295,274.058 21.009 C 274.281 20.786,275.171 20.594,276.037 20.582 C 277.970 20.555,278.536 19.931,278.457 17.913 C 278.412 16.756,278.640 16.071,279.351 15.225 C 279.876 14.601,280.306 13.921,280.306 13.715 C 280.306 13.508,280.478 13.446,280.688 13.576 C 280.899 13.706,281.092 13.544,281.119 13.216 C 281.145 12.888,281.188 12.404,281.214 12.141 C 281.240 11.879,281.518 11.663,281.830 11.663 C 282.143 11.663,282.460 11.346,282.535 10.957 C 282.642 10.403,282.506 10.304,281.902 10.495 C 281.270 10.696,281.170 10.601,281.338 9.958 C 281.549 9.152,282.218 8.866,282.218 9.583 C 282.218 9.806,282.390 9.881,282.600 9.751 C 282.811 9.621,282.983 9.257,282.983 8.941 C 282.983 8.626,282.813 8.473,282.606 8.601 C 282.363 8.751,282.350 8.520,282.569 7.954 C 282.756 7.470,283.087 7.114,283.305 7.162 C 283.523 7.211,283.809 6.910,283.941 6.493 C 284.073 6.077,284.332 5.736,284.517 5.736 C 284.701 5.736,285.497 5.145,286.285 4.423 C 287.886 2.957,287.791 2.859,284.512 2.577 C 281.776 2.341,316.450 1.134,325.694 1.142 C 328.478 1.145,330.840 0.984,330.964 0.783 C 331.104 0.556,326.266 0.408,318.080 0.389 C 254.031 0.238,215.705 0.206,195.985 0.286 M300.574 22.613 C 300.574 22.795,301.463 22.945,302.549 22.945 C 303.636 22.945,304.414 22.833,304.278 22.697 C 303.895 22.314,300.574 22.239,300.574 22.613 M328.781 23.597 C 329.256 23.689,329.945 23.685,330.310 23.590 C 330.676 23.494,330.287 23.419,329.446 23.423 C 328.604 23.428,328.305 23.506,328.781 23.597 M129.924 56.102 C 130.397 56.193,131.171 56.193,131.644 56.102 C 132.118 56.010,131.730 55.936,130.784 55.936 C 129.837 55.936,129.450 56.010,129.924 56.102 M133.961 56.077 C 134.391 56.507,140.727 56.642,140.727 56.221 C 140.727 55.985,139.343 55.832,137.221 55.832 C 135.293 55.832,133.826 55.942,133.961 56.077 M143.021 56.159 C 143.021 56.360,143.408 56.425,143.881 56.303 C 144.600 56.118,144.666 56.174,144.286 56.638 C 144.035 56.945,143.285 57.237,142.618 57.288 C 141.952 57.338,141.093 57.548,140.709 57.753 C 140.326 57.958,139.624 58.126,139.149 58.126 C 138.309 58.126,138.306 58.141,139.028 58.677 C 139.660 59.145,139.699 59.344,139.293 60.010 C 139.030 60.440,138.815 61.053,138.815 61.371 C 138.815 61.690,138.665 61.950,138.482 61.950 C 138.193 61.950,137.858 63.373,137.539 65.966 C 137.487 66.386,137.237 66.687,136.983 66.635 C 136.728 66.582,136.498 66.668,136.471 66.826 C 136.444 66.984,136.356 67.457,136.274 67.878 C 135.343 72.682,135.442 76.104,136.520 76.365 C 139.194 77.012,138.956 77.551,135.885 77.807 C 130.599 78.246,131.365 78.584,137.757 78.633 C 181.255 78.967,289.558 78.740,289.879 78.314 C 289.991 78.166,292.113 78.018,294.595 77.986 C 300.844 77.906,302.463 77.322,296.558 77.278 C 271.568 77.090,249.987 76.583,247.419 76.122 C 245.858 75.842,245.987 75.808,248.805 75.765 C 253.242 75.697,254.378 75.426,253.909 74.549 C 253.207 73.238,253.468 72.385,254.641 72.150 C 255.735 71.931,256.176 70.198,255.348 69.370 C 254.830 68.851,255.060 68.521,255.805 68.716 C 256.410 68.874,256.565 68.679,256.665 67.628 C 256.756 66.681,256.954 66.375,257.428 66.454 C 257.780 66.512,258.178 66.383,258.311 66.167 C 258.445 65.951,258.372 65.774,258.149 65.774 C 257.926 65.774,257.744 65.584,257.744 65.351 C 257.744 65.118,258.002 65.027,258.317 65.148 C 259.050 65.429,259.061 64.862,258.335 64.259 C 257.887 63.888,257.868 63.651,258.239 63.053 C 258.608 62.457,258.594 62.243,258.166 61.977 C 257.793 61.745,257.699 61.228,257.855 60.268 C 258.028 59.201,257.949 58.891,257.506 58.891 C 257.191 58.891,257.028 58.739,257.143 58.553 C 257.258 58.367,265.141 58.077,274.661 57.910 C 284.180 57.743,292.141 57.577,292.352 57.542 C 292.562 57.507,294.326 57.452,296.272 57.420 C 298.336 57.386,299.809 57.202,299.809 56.979 C 299.809 56.733,295.279 56.577,287.094 56.542 C 280.100 56.512,275.067 56.365,275.908 56.214 L 277.438 55.940 276.026 55.886 C 275.250 55.856,274.527 55.973,274.421 56.146 C 274.156 56.574,268.069 56.599,268.069 56.172 C 268.069 55.985,267.715 55.832,267.281 55.832 C 266.848 55.832,266.600 56.004,266.730 56.214 C 266.871 56.442,266.408 56.597,265.583 56.597 C 264.758 56.597,264.295 56.442,264.436 56.214 C 264.566 56.004,264.394 55.832,264.054 55.832 C 263.713 55.832,263.518 55.967,263.620 56.132 C 263.723 56.297,263.475 56.433,263.069 56.433 C 262.664 56.433,262.333 56.297,262.333 56.132 C 262.333 55.967,261.806 55.832,261.163 55.832 C 260.382 55.832,260.083 55.977,260.264 56.270 C 260.456 56.581,260.214 56.630,259.426 56.439 C 257.865 56.061,251.940 55.934,252.501 56.291 C 252.819 56.493,252.754 56.587,252.294 56.591 C 251.926 56.594,251.625 56.444,251.625 56.258 C 251.625 56.064,228.483 55.893,197.323 55.856 C 162.927 55.816,143.021 55.927,143.021 56.159 M316.744 84.321 C 316.747 85.373,316.821 85.758,316.909 85.176 C 316.997 84.595,316.995 83.735,316.904 83.264 C 316.813 82.794,316.741 83.270,316.744 84.321 M24.210 199.044 C 24.212 200.306,24.284 200.776,24.369 200.089 C 24.454 199.401,24.452 198.369,24.365 197.794 C 24.278 197.220,24.208 197.782,24.210 199.044 M24.092 211.450 C 24.092 213.802,23.931 215.350,23.671 215.511 C 23.401 215.678,23.335 216.473,23.488 217.733 C 23.619 218.811,23.558 220.268,23.353 220.969 C 23.148 221.669,22.936 224.079,22.883 226.322 C 22.830 228.566,22.676 231.176,22.541 232.122 L 22.295 233.843 22.237 231.836 C 22.176 229.682,21.646 229.150,21.298 230.892 C 21.059 232.088,19.503 232.570,19.503 231.449 C 19.503 230.954,19.404 230.921,19.034 231.291 C 18.673 231.652,18.669 231.923,19.016 232.480 C 19.375 233.055,19.356 233.244,18.924 233.410 C 18.625 233.525,18.265 233.432,18.124 233.204 C 17.957 232.933,17.746 233.006,17.519 233.412 C 17.165 234.045,14.914 234.310,14.914 233.718 C 14.914 233.544,14.398 233.478,13.767 233.570 C 13.078 233.672,12.620 233.968,12.620 234.312 C 12.620 234.757,12.328 234.830,11.311 234.639 C 10.591 234.504,9.899 234.560,9.773 234.764 C 9.647 234.968,9.185 235.065,8.745 234.981 C 8.072 234.851,7.976 234.978,8.131 235.791 C 8.269 236.514,8.179 236.703,7.771 236.547 C 7.471 236.432,7.324 236.496,7.443 236.689 C 7.563 236.883,7.474 237.156,7.246 237.297 C 7.018 237.438,6.921 237.789,7.032 238.076 C 7.312 238.806,6.622 239.136,4.953 239.070 C 3.208 239.002,2.828 239.436,2.545 241.822 C 2.424 242.846,2.057 244.091,1.730 244.590 C 0.926 245.818,1.011 372.485,1.816 372.753 C 2.079 372.841,2.294 373.156,2.294 373.454 C 2.294 373.752,2.477 373.996,2.699 373.996 C 2.922 373.996,3.014 374.143,2.903 374.322 C 2.643 374.743,4.393 377.124,4.722 376.795 C 4.859 376.658,4.971 376.929,4.971 377.397 C 4.971 377.865,5.118 378.157,5.298 378.046 C 5.478 377.935,6.020 378.264,6.502 378.778 C 7.455 379.792,11.086 381.834,11.096 381.361 C 11.099 381.201,11.262 381.325,11.459 381.636 C 11.746 382.090,12.885 382.202,17.285 382.209 C 24.281 382.220,25.026 381.541,18.356 381.232 C 7.655 380.738,2.797 376.096,2.386 365.973 C 2.169 360.603,2.344 360.155,4.695 360.078 C 6.077 360.033,7.266 359.217,7.266 358.314 C 7.266 357.924,7.663 357.685,8.402 357.629 C 9.027 357.581,10.016 357.345,10.601 357.104 C 11.185 356.862,11.891 356.703,12.170 356.750 C 12.448 356.796,12.919 356.633,13.217 356.386 C 13.514 356.139,14.012 356.035,14.323 356.155 C 14.635 356.274,14.991 356.207,15.115 356.006 C 15.240 355.805,15.829 355.641,16.425 355.641 C 17.055 355.641,17.605 355.390,17.738 355.044 C 18.138 354.001,20.751 354.468,21.075 355.641 C 21.281 356.388,21.348 356.221,21.383 354.876 C 21.484 350.925,22.101 352.319,22.367 357.098 L 22.644 362.088 24.073 362.330 C 24.859 362.462,27.551 362.479,30.055 362.366 C 32.559 362.253,38.394 362.054,43.021 361.923 C 47.648 361.791,51.506 361.615,51.593 361.530 C 51.681 361.446,45.443 361.377,37.731 361.377 L 23.709 361.377 23.709 359.442 C 23.709 358.245,23.856 357.598,24.093 357.745 C 24.350 357.903,24.476 333.022,24.472 282.815 C 24.470 241.473,24.383 207.648,24.280 207.648 C 24.176 207.648,24.092 209.359,24.092 211.450 M26.004 381.644 C 26.004 381.855,26.338 382.027,26.746 382.027 C 27.154 382.027,27.595 381.855,27.725 381.644 C 27.859 381.427,27.537 381.262,26.982 381.262 C 26.444 381.262,26.004 381.434,26.004 381.644 " stroke="none" fill="#5aad65" fill-rule="evenodd"></path><path id="path2" d="M378.489 22.402 C 378.332 22.560,378.203 26.051,378.203 30.159 C 378.203 35.247,378.327 37.504,378.594 37.238 C 378.840 36.991,378.946 34.130,378.880 29.481 C 378.823 25.430,378.647 22.244,378.489 22.402 M349.426 23.597 C 349.900 23.688,350.674 23.688,351.147 23.597 C 351.620 23.506,351.233 23.431,350.287 23.431 C 349.340 23.431,348.953 23.506,349.426 23.597 M378.218 38.719 C 378.444 41.510,378.050 116.620,377.815 115.679 C 377.592 114.788,377.571 114.873,377.720 116.061 C 378.116 119.207,378.194 133.118,377.814 132.883 C 377.587 132.743,377.456 133.306,377.483 134.299 C 377.523 135.738,377.559 135.804,377.770 134.822 C 377.903 134.203,378.019 137.961,378.028 143.172 C 378.037 148.383,377.920 152.331,377.768 151.945 C 377.576 151.458,377.483 151.689,377.465 152.699 C 377.450 153.501,377.572 154.073,377.735 153.972 C 377.899 153.871,378.042 155.582,378.053 157.774 C 378.065 159.966,377.931 161.759,377.756 161.759 C 377.581 161.759,377.465 163.093,377.498 164.723 C 377.552 167.389,377.581 167.495,377.785 165.774 C 377.909 164.723,378.023 170.200,378.036 177.945 C 378.053 187.217,378.197 192.116,378.458 192.286 C 378.710 192.450,378.961 197.611,379.149 206.501 C 379.536 224.837,379.466 224.288,381.287 223.314 C 381.638 223.125,382.035 223.080,382.168 223.213 C 382.301 223.346,382.409 223.269,382.409 223.042 C 382.409 222.815,382.662 222.667,382.972 222.712 C 383.681 222.816,384.220 223.327,383.620 223.327 C 383.375 223.327,383.174 223.606,383.174 223.947 C 383.174 224.453,383.279 224.481,383.743 224.096 C 384.056 223.836,384.591 223.731,384.933 223.862 C 385.440 224.057,385.508 223.920,385.305 223.110 C 385.090 222.253,385.157 222.151,385.804 222.356 C 386.215 222.486,386.662 222.414,386.797 222.195 C 387.072 221.750,389.019 221.652,389.430 222.062 C 389.858 222.490,391.147 222.582,391.383 222.201 C 391.502 222.008,391.425 221.742,391.211 221.610 C 390.454 221.142,390.841 220.675,392.311 220.279 C 393.359 219.996,393.865 219.620,394.018 219.010 C 394.170 218.406,394.553 218.116,395.280 218.056 C 395.854 218.008,396.454 217.759,396.613 217.503 C 396.809 217.185,397.015 217.338,397.257 217.982 C 397.660 219.056,397.885 216.640,398.310 206.692 C 398.445 203.537,398.592 200.483,398.637 199.904 C 398.682 199.326,398.771 197.777,398.834 196.463 L 398.950 194.073 399.265 196.502 C 399.438 197.837,399.676 199.128,399.793 199.370 C 400.058 199.917,399.660 99.540,399.381 95.605 C 399.269 94.030,399.128 92.691,399.067 92.630 C 398.810 92.373,398.408 104.676,398.110 121.914 C 397.934 132.074,397.685 140.492,397.557 140.620 C 397.428 140.749,397.323 139.277,397.323 137.349 C 397.323 135.267,397.168 133.843,396.941 133.843 C 396.730 133.843,396.558 134.101,396.558 134.417 C 396.558 134.732,396.376 134.990,396.153 134.990 C 395.931 134.990,395.855 135.163,395.985 135.373 C 396.115 135.583,395.967 135.755,395.657 135.755 C 395.346 135.755,394.920 136.228,394.708 136.807 C 394.497 137.385,394.311 137.643,394.294 137.380 C 394.242 136.563,393.564 136.855,393.042 137.919 C 392.768 138.478,392.199 139.123,391.778 139.353 C 391.358 139.583,390.904 139.920,390.771 140.103 C 390.638 140.286,390.342 140.114,390.114 139.721 C 389.885 139.328,389.693 139.209,389.687 139.458 C 389.680 139.707,389.331 140.019,388.911 140.153 C 388.491 140.286,388.042 140.814,387.914 141.326 C 387.653 142.364,387.369 142.474,386.692 141.797 C 386.335 141.440,386.131 141.440,385.774 141.797 C 385.522 142.050,384.740 142.256,384.037 142.256 C 383.236 142.256,382.781 142.435,382.820 142.734 C 382.949 143.728,382.774 144.168,382.250 144.168 C 381.952 144.168,381.621 144.383,381.515 144.646 C 381.409 144.909,381.309 144.661,381.292 144.095 C 381.276 143.529,381.075 142.951,380.847 142.809 C 380.586 142.649,380.459 142.890,380.506 143.456 C 380.694 145.706,380.490 147.063,380.071 146.344 C 379.431 145.244,378.998 117.131,378.982 75.621 C 378.972 49.029,378.846 37.859,378.558 37.859 C 378.332 37.859,378.179 38.246,378.218 38.719 M338.762 117.049 C 338.699 171.922,338.398 198.539,337.916 191.874 C 337.639 188.031,336.902 185.462,336.902 188.337 C 336.902 189.392,336.243 189.630,335.887 188.702 C 335.683 188.171,335.596 188.171,335.008 188.703 C 334.649 189.028,334.256 189.195,334.135 189.074 C 334.013 188.953,333.413 189.113,332.801 189.430 C 332.188 189.746,330.924 190.090,329.993 190.193 C 329.061 190.296,328.212 190.414,328.107 190.456 C 328.002 190.497,327.792 190.512,327.640 190.489 C 327.489 190.466,327.179 190.795,326.952 191.219 C 326.725 191.644,326.375 191.890,326.175 191.766 C 325.975 191.642,325.637 191.999,325.424 192.559 C 325.184 193.190,324.836 193.499,324.506 193.373 C 324.214 193.261,323.860 193.284,323.720 193.425 C 323.454 193.691,323.255 193.727,321.511 193.823 C 320.635 193.872,320.459 194.056,320.459 194.921 C 320.459 195.581,320.075 196.290,319.407 196.864 C 318.829 197.361,318.399 197.840,318.451 197.928 C 318.504 198.016,318.517 198.991,318.481 200.096 C 318.227 207.813,317.858 180.156,317.788 148.184 C 317.699 107.378,317.400 77.455,317.091 78.394 C 316.987 78.709,316.724 79.083,316.506 79.225 C 316.243 79.396,316.237 79.653,316.489 79.990 C 317.026 80.710,317.115 85.619,316.630 87.784 C 316.394 88.835,316.365 89.705,316.561 89.834 C 316.748 89.957,316.855 90.488,316.799 91.013 C 316.431 94.462,316.648 218.048,317.024 218.750 C 317.345 219.350,317.338 219.689,316.999 220.099 C 316.749 220.400,316.634 220.987,316.742 221.403 C 316.851 221.819,316.790 222.828,316.607 223.644 C 316.409 224.523,316.421 225.814,316.636 226.809 L 316.998 228.489 316.836 226.492 C 316.746 225.394,316.837 224.395,317.036 224.271 C 317.261 224.133,317.402 226.728,317.407 231.048 C 317.427 250.539,318.040 279.411,318.426 279.025 C 318.583 278.867,318.816 277.955,318.900 277.163 C 318.916 277.012,319.187 276.987,319.503 277.108 C 319.818 277.229,320.098 277.138,320.124 276.905 C 320.151 276.672,320.194 276.296,320.220 276.068 C 320.280 275.546,321.961 274.601,322.861 274.583 C 323.236 274.576,323.641 274.312,323.762 273.996 C 323.883 273.681,324.308 273.423,324.706 273.423 C 325.104 273.423,325.430 273.159,325.430 272.837 C 325.430 272.515,325.702 272.147,326.035 272.019 C 326.403 271.878,326.565 271.503,326.449 271.060 C 326.298 270.483,326.411 270.380,326.992 270.565 C 327.434 270.705,327.725 270.617,327.725 270.342 C 327.725 270.000,327.867 270.005,328.298 270.363 C 328.776 270.760,328.872 270.709,328.872 270.060 C 328.872 269.631,328.657 269.184,328.394 269.066 C 328.131 268.949,328.260 268.869,328.681 268.887 C 330.423 268.966,330.784 268.818,330.784 268.028 C 330.784 267.490,330.964 267.291,331.326 267.430 C 331.986 267.683,332.403 266.782,331.872 266.251 C 331.619 265.997,331.840 265.936,332.533 266.069 C 333.127 266.182,333.480 266.115,333.355 265.912 C 333.138 265.562,333.470 265.482,335.755 265.337 C 336.386 265.297,336.924 265.121,336.950 264.946 C 336.977 264.771,337.020 264.486,337.046 264.313 C 337.072 264.140,337.367 263.726,337.701 263.392 C 338.446 262.647,338.812 251.473,338.814 229.477 C 338.814 221.608,338.883 215.241,338.967 215.328 C 339.325 215.702,339.564 224.932,339.586 239.280 C 339.601 248.821,339.752 254.746,339.983 254.889 C 340.414 255.155,340.223 182.902,339.785 180.080 C 339.573 178.720,339.649 178.188,340.119 177.717 C 340.778 177.058,340.941 175.321,340.377 174.972 C 340.184 174.853,339.951 174.972,339.857 175.237 C 339.764 175.501,339.658 162.294,339.622 145.889 C 339.545 111.033,339.205 72.156,338.975 71.926 C 338.887 71.838,338.791 92.143,338.762 117.049 M183.219 178.203 C 183.182 206.385,183.032 221.405,182.792 221.033 C 182.493 220.571,182.420 220.632,182.415 221.342 C 182.412 221.834,182.578 222.120,182.792 221.989 C 183.025 221.844,183.174 222.431,183.174 223.496 C 183.174 224.454,183.002 225.239,182.792 225.239 C 182.581 225.239,182.409 225.679,182.409 226.218 C 182.409 226.773,182.575 227.094,182.792 226.960 C 183.220 226.695,183.322 227.640,182.909 228.053 C 182.518 228.444,182.524 231.714,182.916 231.472 C 183.100 231.358,183.061 231.620,182.829 232.053 C 182.536 232.600,182.530 232.917,182.809 233.089 C 183.049 233.237,183.075 233.517,182.875 233.782 C 182.239 234.619,182.321 281.037,182.959 281.675 C 183.629 282.346,229.828 282.493,229.828 281.824 C 229.828 281.620,230.731 281.444,231.836 281.434 C 234.343 281.409,238.595 280.897,239.484 280.513 C 239.963 280.306,240.153 280.398,240.153 280.839 C 240.153 281.177,240.298 281.453,240.476 281.453 C 240.988 281.453,242.094 280.080,241.811 279.797 C 241.670 279.656,242.120 279.541,242.810 279.541 C 244.154 279.541,247.908 278.392,248.120 277.916 C 248.190 277.758,248.663 277.629,249.171 277.629 C 249.680 277.629,250.096 277.457,250.096 277.247 C 250.096 277.036,250.370 276.864,250.706 276.864 C 251.041 276.864,251.773 276.626,252.331 276.335 C 252.889 276.044,254.034 275.485,254.876 275.092 C 255.717 274.700,256.491 274.283,256.597 274.166 C 256.702 274.049,257.347 273.727,258.031 273.450 C 258.714 273.174,259.273 272.815,259.273 272.653 C 259.273 272.491,259.704 272.250,260.229 272.118 C 260.755 271.986,261.185 271.710,261.185 271.503 C 261.185 271.297,261.402 271.128,261.667 271.128 C 261.932 271.128,262.630 270.683,263.216 270.139 C 263.803 269.594,264.517 269.239,264.803 269.348 C 265.124 269.472,265.411 269.193,265.555 268.617 C 265.684 268.105,265.959 267.686,266.167 267.686 C 266.374 267.686,266.918 267.256,267.376 266.730 C 267.833 266.205,268.391 265.774,268.616 265.774 C 268.841 265.774,269.508 265.168,270.099 264.428 C 270.690 263.687,271.323 263.173,271.506 263.286 C 271.689 263.399,271.958 263.113,272.104 262.651 C 272.480 261.467,274.419 258.868,274.710 259.159 C 274.843 259.292,274.952 259.193,274.952 258.938 C 274.952 258.683,275.382 258.011,275.908 257.444 C 276.434 256.877,276.864 256.196,276.864 255.931 C 276.864 255.666,277.024 255.449,277.219 255.449 C 277.414 255.449,277.877 254.761,278.249 253.920 C 278.620 253.078,279.062 252.390,279.232 252.390 C 279.402 252.390,279.541 252.125,279.541 251.801 C 279.541 250.802,281.165 248.872,281.540 249.426 C 281.724 249.698,281.753 249.262,281.606 248.415 C 281.420 247.346,281.470 247.002,281.783 247.195 C 282.167 247.433,282.410 246.724,282.263 245.793 C 282.238 245.636,282.390 245.507,282.600 245.507 C 282.811 245.507,282.983 245.324,282.983 245.100 C 282.983 244.876,283.413 243.752,283.939 242.603 C 284.465 241.453,284.896 240.217,284.897 239.855 C 284.898 239.493,285.157 238.704,285.471 238.102 C 285.785 237.499,286.042 236.762,286.042 236.463 C 286.042 236.164,286.320 235.495,286.660 234.977 C 286.999 234.459,287.128 234.032,286.946 234.029 C 286.765 234.025,286.870 233.862,287.181 233.665 C 287.586 233.409,287.766 232.489,287.818 230.403 C 287.858 228.805,288.059 227.291,288.265 227.038 C 288.472 226.784,288.724 225.717,288.827 224.665 C 288.929 223.614,289.158 222.151,289.336 221.415 C 289.964 218.811,289.752 190.844,289.101 190.426 C 288.627 190.121,288.617 190.000,289.045 189.724 C 289.475 189.446,289.478 189.236,289.060 188.481 C 288.783 187.981,288.593 187.443,288.638 187.285 C 288.682 187.127,288.504 186.995,288.241 186.992 C 287.922 186.988,287.954 186.863,288.337 186.616 C 288.719 186.369,288.751 186.243,288.432 186.239 C 288.169 186.236,287.954 185.879,287.954 185.446 C 287.954 185.013,288.124 184.764,288.332 184.892 C 288.549 185.026,288.613 184.873,288.482 184.532 C 288.357 184.206,288.097 183.939,287.903 183.939 C 287.710 183.939,287.791 183.466,288.083 182.887 C 288.641 181.783,288.547 180.880,287.875 180.880 C 287.624 180.880,287.643 181.078,287.926 181.419 C 288.253 181.813,288.258 182.030,287.947 182.222 C 287.296 182.624,287.099 182.217,287.046 180.359 C 287.009 179.047,286.889 178.748,286.520 179.051 C 286.153 179.352,286.042 179.113,286.042 178.017 C 286.042 176.907,286.169 176.640,286.616 176.811 C 286.931 176.932,287.189 176.846,287.189 176.620 C 287.189 176.366,286.804 176.304,286.187 176.459 C 285.209 176.705,285.191 176.676,285.437 175.258 C 285.618 174.212,285.579 173.966,285.297 174.379 C 284.987 174.835,284.905 174.737,284.901 173.901 C 284.897 173.322,284.723 172.849,284.512 172.849 C 284.302 172.849,284.130 172.409,284.130 171.870 C 284.130 171.228,284.282 170.986,284.572 171.165 C 284.839 171.330,284.909 171.270,284.750 171.013 C 284.606 170.779,284.235 170.685,283.927 170.803 C 283.558 170.945,283.364 170.775,283.363 170.309 C 283.362 169.918,283.103 169.106,282.789 168.503 C 282.475 167.901,282.218 167.169,282.218 166.878 C 282.218 166.586,282.046 166.348,281.836 166.348 C 281.625 166.348,281.453 166.004,281.453 165.583 C 281.453 165.163,281.281 164.818,281.071 164.818 C 280.860 164.818,280.687 164.603,280.686 164.340 C 280.685 164.077,280.420 163.357,280.098 162.740 C 279.777 162.123,279.597 161.401,279.699 161.134 C 279.801 160.868,279.678 160.726,279.426 160.817 C 279.174 160.909,278.463 160.133,277.847 159.094 C 276.867 157.441,276.210 156.539,274.577 154.605 C 274.363 154.351,274.187 154.048,274.187 153.933 C 274.187 153.565,272.164 151.434,271.815 151.434 C 271.631 151.434,271.832 151.811,272.260 152.271 C 272.689 152.731,273.040 153.229,273.040 153.377 C 273.040 153.524,273.728 154.478,274.570 155.496 C 275.411 156.514,276.099 157.483,276.099 157.649 C 276.099 157.815,276.500 158.592,276.990 159.377 C 278.563 161.897,280.509 165.720,281.218 167.686 C 281.597 168.738,282.124 170.115,282.388 170.746 C 283.304 172.935,283.975 175.073,285.505 180.688 C 286.509 184.370,287.546 192.257,287.517 195.985 C 287.492 199.161,287.461 199.296,287.114 197.739 C 286.891 196.740,286.622 196.239,286.454 196.510 C 286.299 196.762,285.685 197.056,285.092 197.164 C 284.498 197.271,283.694 197.529,283.306 197.737 C 282.918 197.945,282.600 197.990,282.600 197.838 C 282.600 197.686,282.234 197.955,281.786 198.436 C 281.244 199.017,280.882 199.166,280.706 198.881 C 280.527 198.592,280.216 198.701,279.752 199.214 C 279.203 199.820,278.908 199.893,278.307 199.571 C 277.696 199.244,277.358 199.346,276.539 200.108 C 275.407 201.159,273.594 201.733,273.236 201.154 C 273.107 200.946,272.623 200.846,272.160 200.933 C 271.698 201.020,271.008 201.103,270.628 201.119 C 270.247 201.134,270.035 201.307,270.156 201.503 C 270.277 201.699,270.201 201.967,269.987 202.099 C 269.773 202.232,269.598 202.151,269.598 201.921 C 269.598 201.624,269.360 201.630,268.779 201.941 C 268.329 202.182,266.858 202.379,265.511 202.379 C 263.119 202.379,263.056 202.405,262.842 203.478 C 262.424 205.568,261.950 204.148,261.950 200.806 C 261.950 198.961,261.770 196.433,261.551 195.188 C 261.331 193.944,260.978 191.979,260.767 190.822 C 258.345 177.536,254.515 170.015,246.862 163.515 C 245.064 161.988,245.221 162.734,247.050 164.405 C 247.960 165.238,248.747 166.203,248.798 166.551 C 248.917 167.359,249.331 167.789,249.331 167.103 C 249.331 166.770,249.524 166.849,249.872 167.324 C 250.274 167.874,250.298 168.137,249.967 168.347 C 249.688 168.525,249.807 168.635,250.287 168.642 C 250.861 168.651,250.923 168.736,250.534 168.982 C 250.110 169.251,250.104 169.474,250.503 170.218 C 250.815 170.802,251.048 170.948,251.154 170.629 C 251.277 170.262,251.468 170.312,251.883 170.821 C 252.193 171.200,252.321 171.269,252.168 170.973 C 251.985 170.620,252.041 170.530,252.331 170.709 C 252.574 170.859,252.772 171.431,252.772 171.979 C 252.772 172.528,252.879 172.870,253.009 172.740 C 253.364 172.385,254.388 173.548,254.113 173.993 C 253.982 174.205,254.186 174.384,254.566 174.391 C 255.223 174.402,255.224 174.429,254.589 174.911 C 253.861 175.464,253.689 176.291,254.302 176.291 C 254.512 176.291,254.685 176.119,254.685 175.908 C 254.685 175.698,254.857 175.526,255.067 175.526 C 255.277 175.526,255.449 175.870,255.449 176.291 C 255.449 176.711,255.621 177.055,255.832 177.055 C 256.042 177.055,256.214 177.238,256.214 177.460 C 256.214 177.683,256.042 177.759,255.832 177.629 C 255.229 177.257,255.386 178.057,256.019 178.582 C 256.332 178.842,256.501 179.195,256.395 179.367 C 256.289 179.539,256.379 179.789,256.597 179.924 C 256.814 180.058,256.876 180.354,256.735 180.583 C 256.582 180.830,256.656 180.888,256.920 180.725 C 257.222 180.538,257.361 180.882,257.361 181.813 C 257.361 182.562,257.533 183.174,257.744 183.174 C 257.954 183.174,258.126 183.786,258.126 184.535 C 258.126 185.345,258.281 185.800,258.509 185.660 C 258.735 185.520,258.911 186.016,258.940 186.880 C 258.967 187.681,259.035 188.681,259.092 189.101 C 259.148 189.522,259.256 190.667,259.330 191.646 C 259.404 192.625,259.594 193.346,259.751 193.249 C 259.909 193.151,260.038 194.458,260.038 196.153 C 260.038 198.023,260.194 199.235,260.434 199.235 C 260.700 199.235,260.694 199.490,260.414 200.012 C 260.165 200.478,260.078 201.897,260.198 203.550 C 260.619 209.377,260.639 210.268,260.343 210.086 C 260.104 209.938,259.798 217.597,259.993 218.834 C 260.018 218.991,259.866 219.120,259.656 219.120 C 259.446 219.120,259.302 219.250,259.338 219.407 C 259.523 220.233,258.743 226.769,258.459 226.769 C 258.276 226.769,258.126 227.189,258.126 227.702 C 258.126 228.215,257.954 228.742,257.744 228.872 C 257.533 229.002,257.361 229.462,257.361 229.895 C 257.361 230.877,256.124 234.563,255.736 234.736 C 255.578 234.806,255.449 235.279,255.449 235.787 C 255.449 236.295,255.291 236.711,255.097 236.711 C 254.904 236.711,254.632 237.228,254.493 237.859 C 254.355 238.489,254.126 239.008,253.985 239.010 C 253.844 239.013,253.413 239.673,253.028 240.478 C 252.642 241.284,251.824 242.529,251.209 243.246 C 250.595 243.964,249.998 244.843,249.883 245.200 C 249.768 245.558,249.348 245.954,248.948 246.080 C 248.549 246.207,248.116 246.646,247.986 247.056 C 247.856 247.466,247.615 247.801,247.450 247.801 C 247.285 247.801,246.627 248.274,245.989 248.853 C 243.679 250.945,242.755 251.625,242.224 251.625 C 241.926 251.625,241.683 251.784,241.683 251.977 C 241.683 252.171,241.166 252.443,240.535 252.581 C 239.904 252.720,239.388 252.992,239.388 253.185 C 239.388 253.379,239.044 253.537,238.623 253.537 C 238.203 253.537,237.859 253.693,237.859 253.884 C 237.859 254.074,236.998 254.349,235.946 254.493 C 234.895 254.638,234.034 254.912,234.034 255.103 C 234.034 255.293,233.528 255.449,232.910 255.449 C 232.291 255.449,231.679 255.621,231.549 255.832 C 231.179 256.430,230.155 256.281,229.583 255.545 C 229.089 254.908,229.037 254.909,228.531 255.562 C 228.097 256.120,227.421 256.249,224.890 256.254 C 222.602 256.259,221.849 256.381,222.037 256.716 C 222.213 257.029,222.132 257.021,221.777 256.692 C 221.494 256.429,220.909 256.217,220.478 256.220 C 219.941 256.224,219.845 256.322,220.174 256.531 C 220.459 256.712,220.070 256.826,219.218 256.811 C 218.428 256.798,217.559 256.644,217.287 256.468 C 217.012 256.290,216.588 256.312,216.331 256.519 C 216.078 256.722,214.901 256.908,213.716 256.931 C 210.540 256.993,210.522 256.948,210.484 248.985 C 210.466 245.284,210.334 241.740,210.191 241.109 C 209.996 240.251,210.020 240.155,210.285 240.727 C 210.529 241.253,210.635 240.300,210.626 237.667 C 210.619 235.564,210.510 233.671,210.384 233.461 C 210.034 232.878,210.046 229.809,210.399 229.591 C 210.570 229.485,210.560 229.108,210.378 228.753 C 209.967 227.951,209.573 204.063,209.528 177.247 C 209.510 166.099,209.356 157.439,209.186 158.001 C 209.016 158.563,208.860 170.179,208.838 183.814 C 208.795 211.048,208.522 232.061,208.147 237.094 L 207.905 240.344 207.512 238.623 C 207.224 237.365,207.080 237.135,206.974 237.768 C 206.894 238.245,206.239 239.105,205.518 239.680 C 204.797 240.256,204.207 241.028,204.207 241.396 C 204.207 241.764,204.034 242.065,203.824 242.065 C 203.614 242.065,203.436 242.366,203.430 242.734 C 203.419 243.340,203.364 243.333,202.856 242.661 C 202.347 241.988,202.294 241.981,202.294 242.591 C 202.294 243.090,202.097 243.201,201.530 243.021 C 201.091 242.882,200.765 242.952,200.765 243.186 C 200.765 243.411,201.238 243.615,201.816 243.639 C 202.395 243.663,202.608 243.754,202.291 243.841 C 201.973 243.927,201.378 244.497,200.967 245.107 C 200.557 245.718,200.086 246.133,199.920 246.031 C 199.753 245.928,199.618 246.082,199.618 246.373 C 199.618 247.231,198.004 248.452,196.524 248.716 C 195.234 248.945,194.170 250.089,194.041 251.386 C 194.017 251.623,193.972 252.118,193.940 252.486 C 193.857 253.440,193.117 253.317,193.117 252.349 C 193.117 251.790,192.941 251.611,192.543 251.764 C 192.228 251.885,191.969 251.817,191.969 251.613 C 191.969 251.410,191.786 251.243,191.561 251.243 C 191.327 251.243,191.257 251.569,191.396 252.008 C 191.540 252.463,191.465 252.772,191.208 252.772 C 190.971 252.772,190.883 252.600,191.013 252.390 C 191.143 252.180,190.963 252.008,190.612 252.008 C 190.127 252.008,190.031 252.231,190.209 252.940 C 190.457 253.929,189.898 254.640,189.512 253.826 C 189.387 253.562,189.358 253.743,189.449 254.228 C 189.558 254.810,189.462 255.038,189.167 254.898 C 188.920 254.781,188.418 254.579,188.050 254.449 C 187.682 254.319,187.380 254.057,187.380 253.866 C 187.380 253.676,186.950 253.802,186.424 254.146 C 185.547 254.721,185.288 254.629,185.433 253.796 C 185.463 253.622,185.308 253.591,185.089 253.726 C 184.870 253.862,184.783 254.121,184.895 254.302 C 185.007 254.483,184.952 254.722,184.772 254.833 C 184.310 255.119,183.944 222.437,183.905 177.279 C 183.887 156.019,183.738 137.763,183.574 136.711 C 183.410 135.660,183.251 154.331,183.219 178.203 M265.774 145.504 C 265.774 145.636,266.893 146.874,268.260 148.255 C 270.629 150.647,271.437 151.061,270.150 149.224 C 269.822 148.756,269.659 148.204,269.787 147.996 C 269.925 147.774,269.757 147.720,269.380 147.865 C 268.988 148.015,268.606 147.873,268.397 147.499 C 268.020 146.827,265.774 145.118,265.774 145.504 M339.962 156.192 C 339.962 156.730,340.134 157.170,340.344 157.170 C 340.554 157.170,340.727 156.836,340.727 156.428 C 340.727 156.020,340.554 155.579,340.344 155.449 C 340.127 155.315,339.962 155.637,339.962 156.192 M221.594 156.768 C 221.732 156.991,222.264 157.068,222.777 156.939 C 223.345 156.796,223.709 156.870,223.709 157.129 C 223.709 157.362,224.306 157.553,225.036 157.553 C 227.499 157.553,226.236 156.539,223.657 156.446 C 222.107 156.390,221.426 156.496,221.594 156.768 M93.101 178.011 C 93.101 187.055,93.151 190.701,93.212 186.112 C 93.273 181.523,93.273 174.123,93.212 169.668 C 93.151 165.213,93.101 168.967,93.101 178.011 M162.779 162.396 C 162.382 162.793,162.479 164.054,162.906 164.054 C 163.117 164.054,163.289 163.623,163.289 163.098 C 163.289 162.096,163.200 161.975,162.779 162.396 M163.316 170.864 C 163.298 174.421,163.423 176.253,163.671 176.099 C 164.138 175.811,164.138 167.244,163.671 166.157 C 163.466 165.680,163.332 167.451,163.316 170.864 M135.576 169.902 C 135.412 170.279,135.386 170.695,135.517 170.826 C 135.905 171.214,136.218 170.669,136.039 169.915 C 135.881 169.247,135.860 169.247,135.576 169.902 M64.341 172.275 C 64.345 173.117,64.424 173.416,64.515 172.940 C 64.607 172.464,64.603 171.776,64.507 171.410 C 64.412 171.045,64.337 171.434,64.341 172.275 M339.962 171.870 C 339.962 172.409,340.134 172.849,340.344 172.849 C 340.554 172.849,340.727 172.515,340.727 172.107 C 340.727 171.698,340.554 171.258,340.344 171.128 C 340.127 170.994,339.962 171.315,339.962 171.870 M136.420 174.719 C 136.316 175.116,136.380 175.675,136.561 175.961 C 136.785 176.315,136.893 176.084,136.897 175.239 C 136.903 173.848,136.705 173.631,136.420 174.719 M162.779 177.693 C 162.387 178.085,162.477 179.658,162.906 179.924 C 163.134 180.064,163.289 179.609,163.289 178.799 C 163.289 177.401,163.220 177.252,162.779 177.693 M135.501 179.184 C 135.375 179.514,135.466 179.979,135.704 180.217 C 136.027 180.540,136.138 180.387,136.138 179.618 C 136.138 178.467,135.851 178.272,135.501 179.184 M64.341 187.189 C 64.345 188.031,64.424 188.330,64.515 187.854 C 64.607 187.378,64.603 186.690,64.507 186.324 C 64.412 185.959,64.337 186.348,64.341 187.189 M64.349 193.117 C 64.349 194.063,64.423 194.450,64.515 193.977 C 64.606 193.504,64.606 192.729,64.515 192.256 C 64.423 191.783,64.349 192.170,64.349 193.117 M258.891 198.088 C 258.891 198.509,259.026 198.853,259.191 198.853 C 259.357 198.853,259.492 198.509,259.492 198.088 C 259.492 197.667,259.357 197.323,259.191 197.323 C 259.026 197.323,258.891 197.667,258.891 198.088 M210.421 203.633 C 210.426 204.474,210.504 204.773,210.596 204.298 C 210.687 203.822,210.684 203.134,210.588 202.768 C 210.492 202.402,210.417 202.792,210.421 203.633 M93.103 237.667 C 93.104 248.815,93.152 253.320,93.212 247.679 C 93.272 242.038,93.272 232.917,93.212 227.411 C 93.152 221.905,93.103 226.520,93.103 237.667 M163.671 225.192 C 163.671 225.412,163.903 225.808,164.187 226.073 C 164.471 226.338,164.628 226.842,164.536 227.192 C 164.444 227.543,164.556 227.945,164.785 228.086 C 165.014 228.228,165.201 228.946,165.201 229.682 C 165.201 230.477,165.356 230.924,165.583 230.784 C 166.028 230.509,166.097 228.939,165.682 228.524 C 165.525 228.368,165.224 227.535,165.012 226.672 C 164.669 225.274,163.671 224.173,163.671 225.192 M64.333 227.916 C 64.333 228.652,64.412 228.953,64.508 228.585 C 64.605 228.217,64.605 227.615,64.508 227.247 C 64.412 226.879,64.333 227.180,64.333 227.916 M166.245 237.576 C 166.445 244.363,166.854 246.377,167.302 242.778 C 167.546 240.816,167.498 239.777,166.891 233.928 C 166.387 229.068,166.051 230.969,166.245 237.576 M139.521 234.704 C 139.417 235.900,139.371 236.132,139.161 236.520 C 139.047 236.730,139.171 237.505,139.436 238.241 C 139.905 239.542,139.919 239.501,139.940 236.807 C 139.959 234.351,139.676 232.927,139.521 234.704 M64.373 237.476 C 64.373 239.054,64.441 239.699,64.523 238.910 C 64.606 238.121,64.606 236.831,64.523 236.042 C 64.441 235.253,64.373 235.899,64.373 237.476 M316.507 235.054 C 316.163 235.399,316.195 236.793,316.560 237.368 C 316.732 237.638,316.881 237.197,316.916 236.316 C 316.979 234.748,316.938 234.623,316.507 235.054 M138.815 242.065 C 138.815 242.763,138.973 243.159,139.197 243.021 C 139.407 242.891,139.579 242.461,139.579 242.065 C 139.579 241.669,139.407 241.239,139.197 241.109 C 138.973 240.971,138.815 241.367,138.815 242.065 M165.660 247.346 C 165.407 248.568,165.201 249.947,165.201 250.411 C 165.201 250.874,165.039 251.552,164.842 251.917 C 164.645 252.282,164.018 253.872,163.450 255.449 C 162.502 258.078,161.472 260.326,160.994 260.803 C 160.640 261.157,159.465 263.404,159.465 263.726 C 159.465 264.437,161.274 261.997,162.341 259.847 C 162.967 258.585,163.609 257.495,163.767 257.425 C 163.924 257.355,164.054 256.968,164.054 256.565 C 164.054 256.162,164.244 255.832,164.477 255.832 C 164.720 255.832,164.793 256.112,164.648 256.489 C 164.509 256.851,164.519 257.023,164.671 256.872 C 164.822 256.720,164.999 255.608,165.065 254.401 C 165.130 253.193,165.359 252.146,165.574 252.074 C 165.790 252.003,165.966 251.280,165.966 250.469 C 165.966 249.657,166.138 248.887,166.348 248.757 C 166.800 248.478,166.870 245.124,166.425 245.124 C 166.256 245.124,165.912 246.124,165.660 247.346 M64.349 266.922 C 64.349 267.868,64.423 268.255,64.515 267.782 C 64.606 267.309,64.606 266.534,64.515 266.061 C 64.423 265.588,64.349 265.975,64.349 266.922 M156.241 267.140 C 155.911 267.471,155.641 267.927,155.641 268.155 C 155.641 268.382,155.985 268.171,156.405 267.686 C 157.502 266.422,157.377 266.005,156.241 267.140 M323.386 274.064 C 322.874 274.577,322.355 273.711,322.830 273.138 C 323.278 272.598,323.340 272.604,323.456 273.202 C 323.528 273.566,323.496 273.955,323.386 274.064 M147.875 273.784 C 147.026 274.327,146.926 274.519,147.397 274.700 C 147.724 274.825,147.992 274.801,147.992 274.646 C 147.992 274.491,148.466 274.071,149.044 273.713 C 149.622 273.354,149.837 273.069,149.522 273.078 C 149.207 273.088,148.465 273.405,147.875 273.784 M143.690 275.981 C 143.322 276.077,143.021 276.315,143.021 276.510 C 143.021 277.011,143.474 276.931,144.337 276.278 C 145.080 275.716,144.943 275.653,143.690 275.981 M181.262 279.519 C 181.262 279.927,181.413 280.354,181.597 280.468 C 181.781 280.581,181.931 280.247,181.931 279.725 C 181.931 279.203,181.781 278.776,181.597 278.776 C 181.413 278.776,181.262 279.110,181.262 279.519 M69.981 281.045 C 69.981 281.255,73.623 281.417,78.806 281.439 C 84.769 281.464,87.552 281.348,87.387 281.082 C 87.074 280.574,69.981 280.538,69.981 281.045 M88.897 281.106 C 88.380 281.308,88.731 281.408,90.025 281.426 C 91.060 281.441,91.806 281.354,91.685 281.232 C 91.318 280.866,89.699 280.792,88.897 281.106 M95.029 281.071 C 94.485 281.304,94.926 281.405,96.558 281.420 C 98.173 281.435,98.683 281.332,98.279 281.071 C 97.586 280.622,96.072 280.622,95.029 281.071 M99.392 281.100 C 98.999 281.349,99.139 281.443,99.904 281.447 C 101.046 281.454,101.252 281.266,100.443 280.956 C 100.161 280.848,99.688 280.913,99.392 281.100 M105.163 281.107 C 104.028 281.315,104.159 281.360,106.023 281.403 C 107.232 281.431,108.222 281.387,108.222 281.307 C 108.222 280.991,106.433 280.874,105.163 281.107 M116.509 281.157 C 116.263 281.313,117.987 281.444,120.341 281.447 C 122.694 281.451,124.703 281.320,124.803 281.157 C 125.038 280.777,117.105 280.777,116.509 281.157 M111.185 281.341 C 111.659 281.432,112.433 281.432,112.906 281.341 C 113.380 281.249,112.992 281.175,112.046 281.175 C 111.099 281.175,110.712 281.249,111.185 281.341 M113.104 282.878 C 113.792 282.963,114.824 282.961,115.399 282.874 C 115.973 282.786,115.411 282.717,114.149 282.719 C 112.887 282.721,112.417 282.792,113.104 282.878 M198.324 360.886 C 198.054 361.156,191.216 361.263,166.157 361.390 C 144.818 361.498,153.583 362.164,184.130 362.755 C 191.071 362.890,196.913 363.151,197.113 363.335 C 197.411 363.611,196.544 363.822,195.411 363.749 C 195.306 363.743,195.220 364.798,195.220 366.094 C 195.220 368.529,194.793 370.172,194.161 370.172 C 193.962 370.172,193.907 370.602,194.038 371.128 C 194.216 371.834,194.126 372.084,193.698 372.084 C 193.378 372.084,193.117 372.409,193.117 372.805 C 193.117 373.202,192.860 374.019,192.545 374.622 C 192.231 375.224,191.973 376.018,191.972 376.386 C 191.970 376.754,191.787 377.055,191.564 377.055 C 191.342 377.055,191.256 377.212,191.374 377.403 C 191.670 377.882,191.213 378.967,190.716 378.967 C 190.492 378.967,190.037 379.213,189.705 379.514 C 188.656 380.463,172.292 381.182,148.948 381.303 C 143.901 381.329,140.029 381.409,140.344 381.481 C 144.024 382.319,235.946 382.735,235.946 381.914 C 235.946 381.451,237.248 381.311,243.499 381.098 C 256.499 380.655,260.433 379.768,260.415 377.283 C 260.412 376.842,260.283 376.654,260.128 376.864 C 259.479 377.747,259.058 377.329,259.234 375.977 C 259.334 375.203,259.482 374.867,259.562 375.229 C 259.697 375.837,259.771 375.831,260.505 375.147 C 260.943 374.739,261.435 374.488,261.599 374.589 C 261.763 374.691,262.002 374.604,262.131 374.396 C 262.259 374.188,261.914 373.906,261.364 373.768 C 260.788 373.623,260.210 373.111,260.000 372.556 C 259.602 371.511,259.889 370.842,260.388 371.649 C 260.632 372.044,260.744 372.024,260.924 371.555 C 261.050 371.228,261.008 370.872,260.832 370.764 C 260.101 370.312,260.112 368.552,260.847 368.359 C 261.650 368.149,261.785 367.674,261.152 367.283 C 260.924 367.142,260.811 366.740,260.903 366.389 C 261.120 365.561,260.345 364.861,258.893 364.570 C 258.107 364.413,257.765 364.138,257.834 363.718 C 257.922 363.175,257.120 363.062,251.434 362.811 C 243.556 362.463,242.761 362.396,242.195 362.038 C 241.951 361.883,241.476 361.862,241.139 361.992 C 240.801 362.121,240.270 362.015,239.957 361.755 C 239.562 361.427,239.388 361.414,239.388 361.712 C 239.388 362.346,238.556 362.219,237.528 361.429 C 236.652 360.755,234.799 360.735,234.799 361.399 C 234.799 361.573,234.412 361.638,233.939 361.544 C 233.466 361.450,230.454 361.357,227.245 361.337 C 224.037 361.316,221.317 361.145,221.200 360.956 C 221.083 360.767,220.696 360.614,220.341 360.618 C 219.784 360.623,219.774 360.674,220.268 360.989 C 220.645 361.230,219.058 361.327,215.618 361.274 C 212.522 361.225,210.483 361.047,210.613 360.837 C 210.744 360.626,210.536 360.609,210.101 360.796 C 208.900 361.312,199.862 361.527,200.168 361.032 C 200.458 360.563,198.780 360.430,198.324 360.886 M136.047 381.532 C 136.522 381.624,137.211 381.620,137.576 381.525 C 137.942 381.429,137.553 381.354,136.711 381.358 C 135.870 381.363,135.571 381.441,136.047 381.532 " stroke="none" fill="#582cd0" fill-rule="evenodd"></path><path id="path3" d="M251.152 0.270 C 251.627 0.362,252.316 0.358,252.681 0.263 C 253.047 0.167,252.658 0.092,251.816 0.096 C 250.975 0.101,250.676 0.179,251.152 0.270 M320.368 0.270 C 320.843 0.362,321.532 0.358,321.897 0.263 C 322.263 0.167,321.874 0.092,321.033 0.096 C 320.191 0.101,319.892 0.179,320.368 0.270 M333.230 0.454 C 332.691 0.598,332.023 0.629,331.746 0.523 C 331.470 0.417,331.130 0.514,330.991 0.739 C 330.833 0.995,328.865 1.145,325.694 1.142 C 316.450 1.134,281.776 2.341,284.512 2.577 C 287.791 2.859,287.886 2.957,286.285 4.423 C 285.497 5.145,284.701 5.736,284.517 5.736 C 284.332 5.736,284.073 6.077,283.941 6.493 C 283.809 6.910,283.523 7.211,283.305 7.162 C 283.087 7.114,282.756 7.470,282.569 7.954 C 282.350 8.520,282.363 8.751,282.606 8.601 C 282.813 8.473,282.983 8.626,282.983 8.941 C 282.983 9.257,282.811 9.621,282.600 9.751 C 282.390 9.881,282.218 9.806,282.218 9.583 C 282.218 8.866,281.549 9.152,281.338 9.958 C 281.170 10.601,281.270 10.696,281.902 10.495 C 282.506 10.304,282.642 10.403,282.535 10.957 C 282.460 11.346,282.143 11.663,281.830 11.663 C 281.518 11.663,281.240 11.879,281.214 12.141 C 281.188 12.404,281.145 12.888,281.119 13.216 C 281.092 13.544,280.899 13.706,280.688 13.576 C 280.478 13.446,280.306 13.508,280.306 13.715 C 280.306 13.921,279.876 14.601,279.351 15.225 C 278.640 16.071,278.412 16.756,278.457 17.913 C 278.536 19.931,277.970 20.555,276.037 20.582 C 275.171 20.594,274.281 20.786,274.058 21.009 C 273.772 21.295,275.283 21.421,279.178 21.435 C 286.908 21.464,299.776 22.019,300.095 22.338 C 300.444 22.688,299.375 23.341,298.917 23.057 C 298.722 22.937,298.642 23.076,298.739 23.368 C 298.934 23.954,299.841 24.048,301.429 23.647 C 302.004 23.502,302.574 23.543,302.694 23.738 C 302.815 23.932,303.343 24.092,303.869 24.092 C 304.395 24.092,304.745 23.963,304.648 23.805 C 304.551 23.647,307.853 23.539,311.987 23.565 C 322.590 23.630,322.287 23.607,322.494 24.379 C 322.653 24.977,322.699 24.967,322.924 24.283 C 323.246 23.304,332.696 22.982,332.696 23.951 C 332.696 24.239,332.868 24.474,333.078 24.474 C 333.289 24.474,333.461 24.259,333.462 23.996 C 333.462 23.577,337.666 23.432,342.734 23.677 C 343.102 23.695,343.414 24.011,343.428 24.379 C 343.447 24.917,343.516 24.889,343.780 24.235 C 344.109 23.422,344.109 23.422,361.136 23.470 C 377.832 23.517,378.169 23.503,378.459 22.753 C 378.621 22.333,378.806 25.322,378.869 29.396 C 378.949 34.551,378.851 36.964,378.547 37.331 C 378.227 37.716,378.225 37.859,378.538 37.859 C 378.853 37.859,378.971 47.964,378.982 75.621 C 378.998 117.131,379.431 145.244,380.071 146.344 C 380.490 147.063,380.694 145.706,380.506 143.456 C 380.459 142.890,380.586 142.649,380.847 142.809 C 381.075 142.951,381.276 143.529,381.292 144.095 C 381.309 144.661,381.409 144.909,381.515 144.646 C 381.621 144.383,381.952 144.168,382.250 144.168 C 382.774 144.168,382.949 143.728,382.820 142.734 C 382.781 142.435,383.236 142.256,384.037 142.256 C 384.740 142.256,385.522 142.050,385.774 141.797 C 386.131 141.440,386.335 141.440,386.692 141.797 C 387.369 142.474,387.653 142.364,387.914 141.326 C 388.042 140.814,388.491 140.286,388.911 140.153 C 389.331 140.019,389.680 139.707,389.687 139.458 C 389.693 139.209,389.885 139.328,390.114 139.721 C 390.342 140.114,390.638 140.286,390.771 140.103 C 390.904 139.920,391.358 139.583,391.778 139.353 C 392.199 139.123,392.768 138.478,393.042 137.919 C 393.564 136.855,394.242 136.563,394.294 137.380 C 394.311 137.643,394.497 137.385,394.708 136.807 C 394.920 136.228,395.346 135.755,395.657 135.755 C 395.967 135.755,396.115 135.583,395.985 135.373 C 395.855 135.163,395.931 134.990,396.153 134.990 C 396.376 134.990,396.558 134.732,396.558 134.417 C 396.558 134.101,396.730 133.843,396.941 133.843 C 397.168 133.843,397.323 135.267,397.323 137.349 C 397.323 139.277,397.428 140.749,397.557 140.620 C 397.685 140.492,397.934 132.074,398.110 121.914 C 398.688 88.524,399.469 83.470,399.579 112.407 C 399.612 121.124,399.724 128.341,399.827 128.444 C 399.930 128.547,399.968 102.227,399.912 69.956 C 399.798 5.027,400.005 10.619,397.610 7.885 C 397.242 7.465,396.941 6.896,396.941 6.620 C 396.941 6.344,396.758 6.119,396.536 6.119 C 396.313 6.119,396.207 5.989,396.300 5.832 C 396.710 5.134,395.790 3.774,395.063 4.004 C 394.659 4.133,394.220 4.063,394.089 3.850 C 393.957 3.637,393.254 3.180,392.527 2.835 C 391.800 2.490,391.205 2.063,391.205 1.886 C 391.205 1.709,390.559 1.448,389.771 1.306 C 388.982 1.164,388.108 0.865,387.828 0.643 C 387.254 0.186,334.911 0.004,333.230 0.454 M304.278 22.697 C 304.414 22.833,303.636 22.945,302.549 22.945 C 301.463 22.945,300.574 22.795,300.574 22.613 C 300.574 22.239,303.895 22.314,304.278 22.697 M289.485 23.391 C 289.483 23.713,294.862 23.983,295.054 23.670 C 295.132 23.543,295.931 23.513,296.829 23.603 C 297.728 23.692,298.323 23.626,298.151 23.454 C 297.779 23.082,289.486 23.022,289.485 23.391 M253.920 24.159 C 253.920 25.058,255.133 25.076,255.934 24.187 C 256.498 23.563,256.450 23.516,255.229 23.489 C 254.206 23.467,253.920 23.613,253.920 24.159 M260.049 23.694 C 259.740 23.890,259.603 24.166,259.744 24.308 C 259.886 24.449,260.280 24.287,260.621 23.946 C 261.294 23.273,260.953 23.123,260.049 23.694 M271.033 23.591 C 270.664 23.687,270.366 24.054,270.369 24.407 C 270.373 24.802,270.483 24.889,270.656 24.633 C 270.810 24.404,271.281 24.022,271.702 23.784 C 272.479 23.343,272.241 23.275,271.033 23.591 M275.335 23.901 C 275.335 24.216,275.507 24.474,275.717 24.474 C 275.927 24.474,276.099 24.216,276.099 23.901 C 276.099 23.585,275.927 23.327,275.717 23.327 C 275.507 23.327,275.335 23.585,275.335 23.901 M281.289 23.928 C 280.551 24.667,280.536 24.857,281.217 24.857 C 281.508 24.857,281.836 24.512,281.946 24.092 C 282.188 23.170,282.075 23.142,281.289 23.928 M242.153 24.163 C 242.389 24.873,243.212 24.990,243.212 24.315 C 243.212 23.982,242.940 23.709,242.607 23.709 C 242.274 23.709,242.069 23.914,242.153 24.163 M249.331 24.330 C 249.331 24.838,249.435 24.864,249.904 24.474 C 250.220 24.212,250.478 23.933,250.478 23.854 C 250.478 23.774,250.220 23.709,249.904 23.709 C 249.589 23.709,249.331 23.989,249.331 24.330 M249.044 56.095 C 249.412 56.192,250.014 56.192,250.382 56.095 C 250.750 55.999,250.449 55.920,249.713 55.920 C 248.977 55.920,248.676 55.999,249.044 56.095 M258.509 56.214 C 259.264 56.702,260.531 56.702,260.229 56.214 C 260.099 56.004,259.530 55.834,258.964 55.838 C 258.159 55.842,258.060 55.924,258.509 56.214 M264.436 56.214 C 264.295 56.442,264.758 56.597,265.583 56.597 C 266.408 56.597,266.871 56.442,266.730 56.214 C 266.600 56.004,266.084 55.832,265.583 55.832 C 265.082 55.832,264.566 56.004,264.436 56.214 M268.069 56.217 C 268.069 56.372,275.161 56.529,283.830 56.566 C 298.275 56.628,300.250 56.697,299.777 57.123 C 299.510 57.363,288.192 57.719,272.359 57.986 C 264.097 58.125,257.246 58.385,257.135 58.565 C 257.025 58.744,257.191 58.891,257.506 58.891 C 257.949 58.891,258.028 59.201,257.855 60.268 C 257.699 61.228,257.793 61.745,258.166 61.977 C 258.594 62.243,258.608 62.457,258.239 63.053 C 257.868 63.651,257.887 63.888,258.335 64.259 C 259.061 64.862,259.050 65.429,258.317 65.148 C 258.002 65.027,257.744 65.118,257.744 65.351 C 257.744 65.584,257.926 65.774,258.149 65.774 C 258.372 65.774,258.445 65.951,258.311 66.167 C 258.178 66.383,257.780 66.512,257.428 66.454 C 256.954 66.375,256.756 66.681,256.665 67.628 C 256.565 68.679,256.410 68.874,255.805 68.716 C 255.060 68.521,254.830 68.851,255.348 69.370 C 256.176 70.198,255.735 71.931,254.641 72.150 C 253.468 72.385,253.207 73.238,253.909 74.549 C 254.378 75.426,253.242 75.697,248.805 75.765 C 245.987 75.808,245.858 75.842,247.419 76.122 C 250.028 76.590,278.392 77.239,296.526 77.245 C 300.975 77.247,302.167 77.500,299.190 77.812 C 298.373 77.897,295.942 77.977,293.786 77.989 C 291.630 78.002,289.866 78.169,289.866 78.361 C 289.866 78.553,291.641 78.703,293.810 78.695 C 295.979 78.686,298.129 78.798,298.587 78.944 C 299.045 79.089,299.629 79.079,299.885 78.920 C 300.142 78.762,301.047 78.673,301.896 78.723 C 308.592 79.114,317.006 78.932,317.126 78.394 C 317.386 77.226,317.707 111.074,317.788 148.184 C 317.858 180.156,318.227 207.813,318.481 200.096 C 318.517 198.991,318.535 197.989,318.522 197.867 C 318.508 197.746,318.938 197.267,319.478 196.804 C 320.084 196.283,320.459 195.563,320.459 194.921 C 320.459 194.056,320.635 193.872,321.511 193.823 C 323.255 193.727,323.454 193.691,323.720 193.425 C 323.860 193.284,324.214 193.261,324.506 193.373 C 324.836 193.499,325.184 193.190,325.424 192.559 C 325.637 191.999,325.975 191.642,326.175 191.766 C 326.375 191.890,326.725 191.644,326.952 191.219 C 327.179 190.795,327.489 190.466,327.640 190.489 C 327.792 190.512,328.002 190.497,328.107 190.456 C 328.212 190.414,329.061 190.296,329.993 190.193 C 330.924 190.090,332.188 189.746,332.801 189.430 C 333.413 189.113,334.013 188.953,334.135 189.074 C 334.256 189.195,334.649 189.028,335.008 188.703 C 335.596 188.171,335.683 188.171,335.887 188.702 C 336.243 189.630,336.902 189.392,336.902 188.337 C 336.902 185.462,337.639 188.031,337.916 191.874 C 338.398 198.539,338.699 171.922,338.762 117.049 C 338.791 92.143,338.887 71.838,338.975 71.926 C 339.208 72.159,339.547 111.402,339.613 145.838 C 339.645 162.215,339.791 175.420,339.939 175.181 C 340.568 174.163,340.598 68.934,339.969 68.306 C 339.392 67.728,339.497 67.296,340.153 67.548 C 341.044 67.890,340.829 67.058,339.822 66.266 C 339.325 65.874,338.797 65.173,338.649 64.708 C 338.501 64.243,338.220 63.862,338.024 63.862 C 337.828 63.862,337.667 63.624,337.667 63.334 C 337.667 62.661,334.790 59.765,333.815 59.456 C 333.410 59.327,333.078 59.061,333.078 58.865 C 333.078 58.669,332.832 58.509,332.531 58.509 C 332.229 58.509,331.871 58.157,331.735 57.728 C 331.557 57.169,331.278 57.013,330.751 57.181 C 330.277 57.331,329.934 57.203,329.788 56.822 C 329.600 56.331,329.082 56.271,326.741 56.469 C 324.894 56.625,323.744 56.560,323.408 56.281 C 322.821 55.794,268.069 55.731,268.069 56.217 M276.482 78.764 C 277.174 79.226,278.657 79.278,278.922 78.850 C 279.027 78.680,278.392 78.505,277.511 78.461 C 276.332 78.402,276.060 78.482,276.482 78.764 M282.725 78.839 C 282.998 78.991,284.071 78.972,285.109 78.797 L 286.998 78.478 284.614 78.520 C 283.303 78.542,282.453 78.686,282.725 78.839 M287.763 78.781 C 288.746 79.197,289.484 79.237,289.483 78.872 C 289.483 78.714,288.923 78.556,288.240 78.521 C 287.244 78.469,287.150 78.520,287.763 78.781 M266.635 79.040 C 267.003 79.136,267.605 79.136,267.973 79.040 C 268.341 78.944,268.040 78.865,267.304 78.865 C 266.568 78.865,266.267 78.944,266.635 79.040 M315.105 80.880 C 315.105 81.195,315.277 81.453,315.488 81.453 C 315.698 81.453,315.870 81.195,315.870 80.880 C 315.870 80.564,315.698 80.306,315.488 80.306 C 315.277 80.306,315.105 80.564,315.105 80.880 M377.909 99.809 C 377.909 100.545,377.988 100.846,378.084 100.478 C 378.180 100.110,378.180 99.508,378.084 99.140 C 377.988 98.772,377.909 99.073,377.909 99.809 M377.939 105.354 C 377.941 106.616,378.012 107.086,378.097 106.399 C 378.183 105.711,378.181 104.679,378.094 104.104 C 378.006 103.529,377.937 104.092,377.939 105.354 M377.962 112.811 C 377.962 115.019,378.025 115.923,378.102 114.818 C 378.179 113.714,378.179 111.907,378.102 110.803 C 378.025 109.699,377.962 110.602,377.962 112.811 M377.962 125.813 C 377.962 128.021,378.025 128.924,378.102 127.820 C 378.179 126.716,378.179 124.909,378.102 123.805 C 378.025 122.701,377.962 123.604,377.962 125.813 M377.909 131.931 C 377.909 132.667,377.988 132.968,378.084 132.600 C 378.180 132.232,378.180 131.630,378.084 131.262 C 377.988 130.894,377.909 131.195,377.909 131.931 M101.338 131.745 C 101.338 132.255,100.940 132.357,99.140 132.309 C 97.930 132.277,89.939 132.265,81.381 132.282 L 65.822 132.314 65.868 133.174 C 66.046 136.474,65.712 144.933,65.404 144.933 C 65.200 144.933,65.133 144.675,65.254 144.359 C 65.375 144.044,65.283 143.786,65.050 143.786 C 64.780 143.786,64.649 144.647,64.688 146.176 C 64.722 147.496,64.819 148.009,64.904 147.323 C 65.161 145.254,65.774 145.931,65.774 148.283 C 65.774 150.071,65.631 150.575,65.010 150.963 C 64.130 151.512,63.967 152.387,64.804 152.066 C 65.404 151.836,66.037 153.989,65.652 154.951 C 65.542 155.225,65.439 154.900,65.422 154.229 C 65.355 151.524,64.627 152.621,64.627 155.427 C 64.627 158.153,65.141 159.343,65.504 157.457 C 65.596 156.984,65.674 157.543,65.678 158.700 C 65.682 159.857,65.607 160.502,65.511 160.134 C 65.142 158.722,64.627 159.557,64.627 161.568 C 64.627 163.749,65.221 164.464,65.500 162.620 C 65.588 162.041,65.686 162.504,65.717 163.649 C 65.770 165.555,65.727 165.667,65.213 164.987 C 64.709 164.321,64.650 164.720,64.639 168.876 C 64.633 171.423,64.518 174.305,64.384 175.281 C 64.180 176.768,64.242 177.055,64.766 177.055 C 65.454 177.055,65.577 177.468,65.056 178.031 C 64.135 179.026,64.310 184.678,65.238 183.908 C 65.685 183.537,65.767 183.741,65.730 185.135 C 65.706 186.054,65.603 186.463,65.502 186.042 C 65.059 184.201,64.628 184.689,64.639 187.017 C 64.650 189.269,64.700 189.419,65.213 188.741 C 65.715 188.077,65.766 188.478,65.695 192.566 C 65.618 196.977,65.611 197.012,65.489 193.595 C 65.291 188.039,64.627 189.350,64.627 195.296 C 64.627 200.129,65.053 201.777,65.496 198.662 C 65.586 198.031,65.648 200.956,65.633 205.163 C 65.612 210.989,65.578 211.513,65.488 207.361 C 65.285 197.943,64.627 200.997,64.627 211.358 C 64.627 220.459,65.182 224.106,65.488 217.016 C 65.561 215.334,65.625 217.400,65.631 221.606 C 65.636 225.813,65.575 228.523,65.494 227.629 C 65.298 225.451,64.759 225.564,64.580 227.820 C 64.342 230.821,64.797 246.890,65.103 246.272 C 65.259 245.956,65.435 242.256,65.494 238.050 C 65.552 233.843,65.603 236.166,65.607 243.212 C 65.611 250.258,65.562 254.302,65.497 252.199 C 65.433 250.096,65.257 248.117,65.107 247.801 C 64.731 247.013,64.389 255.566,64.642 259.402 C 64.874 262.909,65.309 262.650,65.500 258.891 C 65.570 257.524,65.660 262.187,65.701 269.254 L 65.774 282.102 73.136 282.398 C 92.507 283.176,127.318 282.761,128.332 281.740 C 128.489 281.582,129.320 281.449,130.178 281.444 C 131.037 281.439,132.499 281.260,133.426 281.046 C 134.584 280.779,135.237 280.782,135.510 281.055 C 136.035 281.580,136.520 281.561,136.520 281.017 C 136.520 280.381,137.729 279.567,138.696 279.553 C 139.157 279.547,139.641 279.369,139.771 279.159 C 139.901 278.948,140.272 278.776,140.596 278.776 C 140.920 278.776,141.813 278.495,142.581 278.152 C 146.230 276.520,147.240 276.006,147.443 275.678 C 147.564 275.482,147.823 275.421,148.019 275.542 C 148.215 275.663,148.375 275.580,148.375 275.357 C 148.375 275.134,148.558 274.952,148.783 274.952 C 149.173 274.952,151.450 273.376,152.513 272.371 C 152.791 272.108,153.152 271.893,153.316 271.893 C 153.794 271.893,158.697 266.866,159.751 265.296 C 160.280 264.508,160.821 263.862,160.952 263.862 C 161.083 263.862,161.437 263.303,161.738 262.620 C 162.039 261.936,162.511 261.149,162.787 260.871 C 163.063 260.593,163.289 260.120,163.289 259.820 C 163.289 259.519,163.442 259.273,163.630 259.273 C 163.923 259.273,164.322 258.281,164.646 256.741 C 164.746 256.263,165.836 253.714,166.380 252.682 C 166.573 252.317,166.730 251.585,166.730 251.057 C 166.730 250.528,166.874 250.096,167.050 250.096 C 167.489 250.096,167.645 247.300,167.667 239.006 C 167.688 231.341,167.518 230.321,165.431 225.564 C 165.094 224.796,164.818 223.962,164.818 223.711 C 164.818 223.459,164.485 222.785,164.077 222.213 C 163.670 221.640,163.111 220.452,162.837 219.573 C 162.562 218.693,162.164 217.972,161.953 217.970 C 161.741 217.968,160.880 217.169,160.038 216.193 C 157.619 213.388,155.614 211.526,153.346 209.977 C 151.307 208.585,150.549 208.157,146.787 206.277 C 145.809 205.788,144.918 205.165,144.809 204.893 C 144.648 204.494,144.538 204.498,144.245 204.917 C 143.991 205.279,143.803 205.308,143.620 205.012 C 143.278 204.459,143.685 203.824,144.382 203.824 C 144.685 203.824,144.933 203.652,144.933 203.442 C 144.933 203.231,145.062 203.087,145.220 203.120 C 147.370 203.575,159.465 192.795,159.465 190.423 C 159.465 190.222,159.600 190.057,159.766 190.057 C 160.058 190.057,161.368 187.586,162.662 184.595 C 163.007 183.799,163.289 182.734,163.289 182.228 C 163.289 181.721,163.443 181.212,163.631 181.096 C 164.532 180.539,165.120 166.536,164.380 163.289 C 163.466 159.285,162.753 157.192,161.342 154.370 C 160.520 152.724,159.847 151.122,159.847 150.810 C 159.847 150.497,159.663 150.355,159.439 150.494 C 159.214 150.633,158.936 150.385,158.821 149.943 C 158.705 149.501,158.481 149.140,158.324 149.140 C 158.166 149.140,157.557 148.415,156.971 147.530 C 155.645 145.526,150.366 140.328,148.895 139.579 C 148.293 139.272,147.269 138.631,146.618 138.153 C 145.967 137.676,145.296 137.285,145.126 137.285 C 144.843 137.285,141.419 135.770,139.883 134.964 C 139.524 134.776,138.491 134.510,137.588 134.372 C 136.685 134.234,135.774 133.994,135.564 133.839 C 135.124 133.514,133.546 133.189,130.019 132.697 C 128.652 132.507,122.016 132.338,115.273 132.323 C 104.908 132.300,102.883 132.205,102.175 131.709 C 101.417 131.178,101.338 131.181,101.338 131.745 M195.229 131.669 C 194.962 132.285,194.469 132.355,190.867 132.284 C 188.634 132.240,185.817 132.229,184.608 132.259 L 182.409 132.314 182.365 141.013 C 182.340 145.798,182.242 149.412,182.146 149.044 C 181.864 147.965,181.200 148.277,181.332 149.426 C 181.399 150.009,181.664 150.436,181.925 150.385 C 182.289 150.312,182.390 152.687,182.371 160.901 C 182.296 192.772,182.500 220.559,182.812 221.052 C 183.026 221.390,183.184 204.679,183.219 178.203 C 183.251 154.331,183.410 135.660,183.574 136.711 C 183.738 137.763,183.887 156.019,183.905 177.279 C 183.944 222.437,184.310 255.119,184.772 254.833 C 184.952 254.722,185.007 254.483,184.895 254.302 C 184.783 254.121,184.870 253.862,185.089 253.726 C 185.308 253.591,185.463 253.622,185.433 253.796 C 185.288 254.629,185.547 254.721,186.424 254.146 C 186.950 253.802,187.380 253.676,187.380 253.866 C 187.380 254.057,187.682 254.319,188.050 254.449 C 188.418 254.579,188.920 254.781,189.167 254.898 C 189.462 255.038,189.558 254.810,189.449 254.228 C 189.358 253.743,189.387 253.562,189.512 253.826 C 189.898 254.640,190.457 253.929,190.209 252.940 C 190.031 252.231,190.127 252.008,190.612 252.008 C 190.963 252.008,191.143 252.180,191.013 252.390 C 190.883 252.600,190.971 252.772,191.208 252.772 C 191.465 252.772,191.540 252.463,191.396 252.008 C 191.257 251.569,191.327 251.243,191.561 251.243 C 191.786 251.243,191.969 251.410,191.969 251.613 C 191.969 251.817,192.228 251.885,192.543 251.764 C 192.941 251.611,193.117 251.790,193.117 252.349 C 193.117 253.317,193.857 253.440,193.940 252.486 C 193.972 252.118,194.017 251.623,194.041 251.386 C 194.170 250.089,195.234 248.945,196.524 248.716 C 198.004 248.452,199.618 247.231,199.618 246.373 C 199.618 246.082,199.753 245.928,199.920 246.031 C 200.086 246.133,200.557 245.718,200.967 245.107 C 201.378 244.497,201.973 243.927,202.291 243.841 C 202.608 243.754,202.395 243.663,201.816 243.639 C 201.238 243.615,200.765 243.411,200.765 243.186 C 200.765 242.952,201.091 242.882,201.530 243.021 C 202.097 243.201,202.294 243.090,202.294 242.591 C 202.294 241.981,202.347 241.988,202.856 242.661 C 203.364 243.333,203.419 243.340,203.430 242.734 C 203.436 242.366,203.614 242.065,203.824 242.065 C 204.034 242.065,204.207 241.764,204.207 241.396 C 204.207 241.028,204.797 240.256,205.518 239.680 C 206.239 239.105,206.894 238.245,206.974 237.768 C 207.080 237.135,207.224 237.365,207.512 238.623 L 207.905 240.344 208.147 237.094 C 208.522 232.061,208.795 211.048,208.838 183.814 C 208.860 170.179,209.016 158.563,209.186 158.001 C 209.356 157.439,209.531 168.293,209.575 182.122 C 209.620 195.951,209.699 207.438,209.751 207.648 C 209.804 207.859,209.869 212.620,209.895 218.228 C 209.921 223.837,210.027 228.342,210.130 228.239 C 210.233 228.136,210.328 212.189,210.341 192.802 L 210.365 157.553 212.735 157.531 C 214.039 157.519,217.041 157.528,219.407 157.551 C 222.443 157.581,223.709 157.462,223.709 157.149 C 223.709 156.869,223.364 156.791,222.777 156.939 C 222.264 157.068,221.732 156.991,221.594 156.768 C 221.426 156.496,222.107 156.390,223.657 156.446 C 225.070 156.497,226.040 156.713,226.151 157.002 C 226.318 157.438,228.374 157.879,233.642 158.606 C 235.335 158.840,235.827 159.077,236.217 159.849 C 236.571 160.548,236.702 160.624,236.706 160.134 C 236.712 159.392,237.149 159.292,238.151 159.804 C 238.516 159.991,239.804 160.614,241.013 161.188 C 242.223 161.763,243.212 162.384,243.212 162.569 C 243.212 162.755,243.452 162.906,243.745 162.906 C 244.039 162.906,244.792 163.380,245.419 163.958 C 247.724 166.082,248.506 166.663,248.743 166.426 C 248.876 166.292,248.178 165.442,247.191 164.536 C 245.261 162.764,244.991 161.926,246.862 163.515 C 254.515 170.015,258.345 177.536,260.767 190.822 C 260.978 191.979,261.331 193.944,261.551 195.188 C 261.770 196.433,261.950 198.961,261.950 200.806 C 261.950 204.148,262.424 205.568,262.842 203.478 C 263.056 202.405,263.119 202.379,265.511 202.379 C 266.858 202.379,268.329 202.182,268.779 201.941 C 269.360 201.630,269.598 201.624,269.598 201.921 C 269.598 202.151,269.773 202.232,269.987 202.099 C 270.201 201.967,270.277 201.699,270.156 201.503 C 270.035 201.307,270.247 201.134,270.628 201.119 C 271.008 201.103,271.698 201.020,272.160 200.933 C 272.623 200.846,273.107 200.946,273.236 201.154 C 273.594 201.733,275.407 201.159,276.539 200.108 C 277.358 199.346,277.696 199.244,278.307 199.571 C 278.908 199.893,279.203 199.820,279.752 199.214 C 280.216 198.701,280.527 198.592,280.706 198.881 C 280.882 199.166,281.244 199.017,281.786 198.436 C 282.234 197.955,282.600 197.686,282.600 197.838 C 282.600 197.990,282.918 197.945,283.306 197.737 C 283.694 197.529,284.498 197.271,285.092 197.164 C 285.685 197.056,286.299 196.762,286.454 196.510 C 286.622 196.239,286.891 196.740,287.114 197.739 C 287.461 199.296,287.492 199.161,287.517 195.985 C 287.546 192.257,286.509 184.370,285.505 180.688 C 283.975 175.073,283.304 172.935,282.388 170.746 C 282.124 170.115,281.597 168.738,281.218 167.686 C 280.509 165.720,278.563 161.897,276.990 159.377 C 276.500 158.592,276.099 157.815,276.099 157.649 C 276.099 157.483,275.411 156.514,274.570 155.496 C 273.728 154.478,273.040 153.524,273.040 153.377 C 273.040 153.229,272.689 152.731,272.260 152.271 C 271.832 151.811,271.631 151.434,271.815 151.434 C 272.164 151.434,274.187 153.565,274.187 153.933 C 274.187 154.048,274.363 154.351,274.577 154.605 C 276.033 156.332,276.605 157.107,277.703 158.844 C 278.385 159.921,279.043 160.889,279.166 160.994 C 279.509 161.288,280.688 163.924,280.688 164.398 C 280.688 164.629,280.860 164.818,281.071 164.818 C 281.281 164.818,281.453 165.163,281.453 165.583 C 281.453 166.004,281.625 166.348,281.836 166.348 C 282.046 166.348,282.218 166.586,282.218 166.878 C 282.218 167.169,282.475 167.901,282.789 168.503 C 283.103 169.106,283.362 169.900,283.363 170.268 C 283.364 170.636,283.537 170.937,283.748 170.937 C 283.958 170.937,284.130 171.367,284.130 171.893 C 284.130 172.419,284.291 172.849,284.487 172.849 C 284.683 172.849,284.919 173.236,285.010 173.709 C 285.101 174.183,285.104 173.881,285.016 173.040 C 284.928 172.199,284.692 171.347,284.493 171.147 C 284.293 170.947,284.130 170.388,284.130 169.904 C 284.130 169.421,283.958 169.025,283.748 169.025 C 283.537 169.025,283.365 168.730,283.365 168.371 C 283.365 167.641,280.278 161.258,279.828 161.058 C 279.670 160.988,279.541 160.687,279.541 160.389 C 279.541 160.091,279.369 159.847,279.159 159.847 C 278.948 159.847,278.776 159.630,278.776 159.364 C 278.776 158.817,276.192 154.833,275.558 154.404 C 275.330 154.249,275.274 154.120,275.433 154.117 C 276.443 154.096,266.932 144.762,263.572 142.476 C 262.049 141.439,260.803 140.364,260.803 140.085 C 260.803 139.807,260.502 139.577,260.134 139.574 C 259.096 139.565,256.613 138.616,255.795 137.916 C 255.390 137.569,254.888 137.285,254.680 137.285 C 254.472 137.285,254.302 137.129,254.302 136.938 C 254.302 136.748,253.977 136.677,253.580 136.780 C 253.184 136.884,252.743 136.782,252.602 136.553 C 252.461 136.325,252.006 136.138,251.591 136.138 C 251.176 136.138,250.742 135.890,250.626 135.588 C 250.504 135.272,250.158 135.137,249.810 135.271 C 249.444 135.411,249.302 135.346,249.452 135.104 C 249.609 134.850,248.697 134.607,246.933 134.433 C 245.412 134.283,243.996 134.023,243.786 133.856 C 242.821 133.087,235.499 132.381,227.456 132.281 C 221.712 132.209,220.652 132.105,220.457 131.596 C 220.257 131.075,220.181 131.070,219.879 131.559 C 219.299 132.499,195.914 132.582,195.690 131.645 C 195.539 131.017,195.511 131.019,195.229 131.669 M377.909 134.990 C 377.909 135.727,377.988 136.028,378.084 135.660 C 378.180 135.292,378.180 134.689,378.084 134.321 C 377.988 133.953,377.909 134.254,377.909 134.990 M64.627 140.344 C 64.627 140.975,64.799 141.491,65.010 141.491 C 65.220 141.491,65.392 140.975,65.392 140.344 C 65.392 139.713,65.220 139.197,65.010 139.197 C 64.799 139.197,64.627 139.713,64.627 140.344 M377.924 142.639 C 377.924 143.585,377.999 143.972,378.090 143.499 C 378.181 143.026,378.181 142.251,378.090 141.778 C 377.999 141.305,377.924 141.692,377.924 142.639 M270.746 145.507 C 270.746 145.822,270.918 146.080,271.128 146.080 C 271.338 146.080,271.511 145.822,271.511 145.507 C 271.511 145.191,271.338 144.933,271.128 144.933 C 270.918 144.933,270.746 145.191,270.746 145.507 M268.331 147.466 C 268.442 147.756,268.736 147.992,268.983 147.992 C 269.407 147.992,270.746 149.889,270.746 150.489 C 270.746 150.641,269.627 149.635,268.260 148.255 C 266.893 146.874,265.774 145.636,265.774 145.504 C 265.774 145.105,268.114 146.900,268.331 147.466 M377.917 147.801 C 377.921 148.642,377.999 148.942,378.091 148.466 C 378.182 147.990,378.179 147.302,378.083 146.936 C 377.987 146.571,377.912 146.960,377.917 147.801 M122.945 157.936 C 123.155 158.098,124.058 158.352,124.952 158.499 C 125.846 158.646,126.577 158.924,126.577 159.116 C 126.577 159.308,126.836 159.465,127.151 159.465 C 127.467 159.465,127.725 159.637,127.725 159.847 C 127.725 160.057,127.904 160.229,128.123 160.229 C 128.929 160.229,131.948 163.065,132.907 164.723 C 133.302 165.406,133.783 165.966,133.975 165.966 C 134.166 165.966,134.231 166.697,134.118 167.591 C 134.005 168.485,133.993 168.930,134.091 168.579 C 134.189 168.229,134.561 167.832,134.917 167.696 C 135.436 167.499,135.469 167.545,135.086 167.931 C 134.823 168.196,134.612 169.024,134.617 169.771 L 134.625 171.128 135.373 170.172 L 136.121 169.216 136.129 170.076 C 136.134 170.550,135.966 170.937,135.755 170.937 C 135.524 170.937,135.373 172.538,135.373 174.975 C 135.373 177.569,135.510 178.928,135.755 178.776 C 135.976 178.640,136.133 178.993,136.126 179.614 C 136.114 180.624,136.081 180.645,135.571 179.972 C 134.953 179.156,134.500 180.231,134.444 182.646 C 134.426 183.435,134.255 183.777,133.939 183.657 C 133.650 183.547,133.461 183.793,133.461 184.280 C 133.461 184.723,133.300 185.086,133.104 185.086 C 132.908 185.086,132.633 185.447,132.493 185.888 C 132.096 187.139,128.781 190.172,127.247 190.687 C 126.879 190.810,126.577 191.063,126.577 191.249 C 126.577 191.435,126.248 191.587,125.844 191.587 C 125.441 191.587,125.053 191.762,124.982 191.975 C 124.911 192.188,123.687 192.472,122.261 192.605 C 120.836 192.738,119.579 192.994,119.468 193.173 C 119.126 193.726,110.135 193.580,110.128 193.021 C 110.124 192.701,109.997 192.733,109.746 193.117 C 109.411 193.627,109.323 193.627,108.958 193.117 C 108.648 192.685,108.498 192.661,108.352 193.021 C 108.208 193.376,106.544 193.499,101.880 193.499 C 97.950 193.499,95.602 193.642,95.602 193.881 C 95.602 194.587,94.892 194.273,94.631 193.451 C 94.478 192.967,94.561 192.523,94.837 192.352 C 95.169 192.147,95.181 191.990,94.878 191.803 C 94.579 191.619,94.455 186.559,94.455 174.553 L 94.455 157.564 106.023 157.463 C 118.388 157.354,122.335 157.465,122.945 157.936 M377.909 160.612 C 377.909 161.348,377.988 161.649,378.084 161.281 C 378.180 160.913,378.180 160.311,378.084 159.943 C 377.988 159.575,377.909 159.876,377.909 160.612 M93.212 186.112 C 93.151 190.701,93.101 187.055,93.101 178.011 C 93.101 168.967,93.151 165.213,93.212 169.668 C 93.273 174.123,93.273 181.523,93.212 186.112 M163.289 163.098 C 163.289 163.623,163.117 164.054,162.906 164.054 C 162.479 164.054,162.382 162.793,162.779 162.396 C 163.200 161.975,163.289 162.096,163.289 163.098 M377.946 166.539 C 377.947 168.011,378.017 168.567,378.099 167.773 C 378.182 166.980,378.181 165.775,378.096 165.097 C 378.012 164.418,377.944 165.067,377.946 166.539 M164.027 171.392 C 164.042 173.991,163.893 175.962,163.671 176.099 C 163.423 176.253,163.298 174.421,163.316 170.864 C 163.332 167.451,163.466 165.680,163.671 166.157 C 163.852 166.577,164.012 168.933,164.027 171.392 M65.673 172.371 C 65.594 173.370,65.530 172.553,65.530 170.554 C 65.530 168.556,65.594 167.739,65.673 168.738 C 65.752 169.737,65.752 171.372,65.673 172.371 M253.161 172.726 C 253.172 173.312,253.877 174.167,254.136 173.908 C 254.277 173.766,254.115 173.372,253.774 173.031 C 253.433 172.691,253.158 172.553,253.161 172.726 M136.897 175.239 C 136.893 176.084,136.785 176.315,136.561 175.961 C 136.260 175.487,136.408 173.996,136.756 173.996 C 136.837 173.996,136.900 174.555,136.897 175.239 M285.564 174.980 C 285.143 175.407,285.214 176.673,285.660 176.673 C 285.870 176.673,286.042 177.285,286.042 178.034 C 286.042 178.783,286.195 179.301,286.382 179.185 C 286.568 179.070,286.837 179.748,286.979 180.692 C 287.218 182.291,287.519 182.717,288.041 182.195 C 288.159 182.077,287.987 181.443,287.659 180.786 C 287.331 180.129,287.027 179.001,286.983 178.280 C 286.940 177.559,286.727 176.860,286.511 176.726 C 286.296 176.591,286.059 176.078,285.985 175.585 C 285.911 175.092,285.722 174.819,285.564 174.980 M163.289 178.799 C 163.289 179.609,163.134 180.064,162.906 179.924 C 162.272 179.532,162.487 177.438,163.161 177.438 C 163.231 177.438,163.289 178.050,163.289 178.799 M339.811 178.043 C 339.488 178.885,339.569 180.921,339.962 181.836 C 340.191 182.368,340.299 181.816,340.317 180.019 C 340.345 177.401,340.230 176.952,339.811 178.043 M65.669 181.740 C 65.584 182.424,65.514 181.864,65.514 180.497 C 65.514 179.130,65.584 178.571,65.669 179.254 C 65.753 179.938,65.753 181.056,65.669 181.740 M287.954 185.405 C 287.954 185.860,288.111 186.233,288.303 186.233 C 288.691 186.233,288.633 185.255,288.220 184.842 C 288.074 184.696,287.954 184.949,287.954 185.405 M101.338 217.400 C 101.338 218.172,102.829 218.137,103.128 217.358 C 103.345 216.792,103.392 216.792,103.709 217.358 C 104.144 218.135,104.938 218.170,104.642 217.400 C 104.302 216.513,107.775 216.601,108.454 217.495 C 108.938 218.133,108.963 218.133,108.974 217.495 C 108.985 216.889,109.512 216.826,114.578 216.826 C 119.574 216.826,120.118 216.889,119.681 217.416 C 119.294 217.881,119.290 218.103,119.660 218.467 C 120.026 218.829,120.235 218.784,120.622 218.260 C 121.229 217.439,121.834 217.401,122.127 218.164 C 122.248 218.480,122.524 218.738,122.741 218.738 C 122.958 218.738,123.136 218.480,123.136 218.164 C 123.136 217.521,124.109 217.382,124.474 217.973 C 124.604 218.184,125.148 218.356,125.682 218.356 C 127.023 218.356,129.254 219.472,129.254 220.143 C 129.254 220.447,129.436 220.583,129.659 220.445 C 130.123 220.158,132.989 221.933,133.843 223.037 C 134.159 223.445,134.804 224.261,135.277 224.851 C 135.750 225.440,136.138 226.113,136.138 226.346 C 136.138 226.578,136.310 226.769,136.520 226.769 C 136.730 226.769,136.902 226.930,136.902 227.126 C 136.902 228.357,137.704 229.509,138.247 229.058 C 138.642 228.730,138.815 228.718,138.815 229.016 C 138.815 229.252,138.642 229.446,138.432 229.446 C 138.222 229.446,138.050 229.894,138.050 230.442 C 138.050 231.162,138.206 231.379,138.611 231.224 C 139.268 230.972,139.775 231.574,139.203 231.927 C 138.989 232.059,138.815 233.200,138.815 234.462 C 138.815 235.919,138.956 236.669,139.203 236.516 C 139.417 236.384,139.503 236.132,139.394 235.955 C 139.285 235.779,139.357 235.232,139.554 234.739 C 139.825 234.064,139.911 234.551,139.903 236.711 C 139.893 239.389,139.864 239.490,139.459 238.241 L 139.024 236.902 138.894 238.601 C 138.822 239.535,138.970 240.685,139.222 241.156 C 139.477 241.632,139.553 242.323,139.394 242.708 C 139.203 243.172,139.048 243.244,138.929 242.925 C 138.623 242.105,138.050 242.402,138.050 243.381 C 138.050 243.894,137.878 244.421,137.667 244.551 C 137.457 244.681,137.284 245.078,137.284 245.434 C 137.281 246.641,132.664 252.772,131.758 252.772 C 131.603 252.772,131.005 253.108,130.429 253.517 C 128.582 254.833,125.595 255.843,125.073 255.328 C 124.719 254.979,124.501 255.029,124.119 255.545 C 123.835 255.930,123.126 256.214,122.447 256.214 C 121.799 256.214,121.162 256.386,121.033 256.597 C 120.883 256.839,116.248 256.979,108.390 256.979 C 100.375 256.979,95.985 256.844,95.985 256.597 C 95.985 256.386,95.641 256.214,95.220 256.214 C 94.465 256.214,94.455 255.959,94.455 237.094 C 94.455 223.211,94.573 217.973,94.884 217.973 C 95.181 217.973,95.166 217.796,94.837 217.400 C 94.420 216.897,94.792 216.826,97.850 216.826 C 100.696 216.826,101.338 216.932,101.338 217.400 M93.212 247.679 C 93.152 253.320,93.104 248.815,93.103 237.667 C 93.103 226.520,93.152 221.905,93.212 227.411 C 93.272 232.917,93.272 242.038,93.212 247.679 M64.627 223.304 C 64.627 224.158,64.799 224.857,65.010 224.857 C 65.220 224.857,65.392 224.264,65.392 223.541 C 65.392 222.817,65.220 222.119,65.010 221.989 C 64.779 221.846,64.627 222.367,64.627 223.304 M182.759 221.893 C 182.475 222.735,182.496 225.239,182.788 225.239 C 183.000 225.239,183.174 224.465,183.174 223.518 C 183.174 222.146,182.959 221.303,182.759 221.893 M165.012 226.672 C 165.224 227.535,165.525 228.368,165.682 228.524 C 166.097 228.939,166.028 230.509,165.583 230.784 C 165.356 230.924,165.201 230.477,165.201 229.682 C 165.201 228.946,165.014 228.228,164.785 228.086 C 164.556 227.945,164.444 227.543,164.536 227.192 C 164.628 226.842,164.471 226.338,164.187 226.073 C 163.538 225.467,163.514 224.742,164.149 224.949 C 164.412 225.034,164.800 225.810,165.012 226.672 M182.688 227.000 C 182.535 227.153,182.409 227.542,182.409 227.865 C 182.409 228.295,182.522 228.338,182.835 228.026 C 183.069 227.792,183.194 227.402,183.113 227.161 C 183.033 226.919,182.841 226.846,182.688 227.000 M166.891 233.928 C 167.498 239.777,167.546 240.816,167.302 242.778 C 166.854 246.377,166.445 244.363,166.245 237.576 C 166.051 230.969,166.387 229.068,166.891 233.928 M166.730 246.823 C 166.730 247.757,166.558 248.627,166.348 248.757 C 166.138 248.887,165.966 249.672,165.966 250.501 C 165.966 251.329,165.816 252.008,165.632 252.008 C 165.449 252.008,165.185 252.868,165.046 253.920 C 164.906 254.971,164.626 255.832,164.423 255.832 C 164.220 255.832,164.054 256.162,164.054 256.565 C 164.054 256.968,163.924 257.355,163.767 257.425 C 163.609 257.495,162.967 258.585,162.341 259.847 C 161.274 261.997,159.465 264.437,159.465 263.726 C 159.465 263.404,160.640 261.157,160.994 260.803 C 161.472 260.326,162.502 258.078,163.450 255.449 C 164.018 253.872,164.645 252.282,164.842 251.917 C 165.039 251.552,165.201 250.874,165.201 250.411 C 165.201 249.002,166.098 245.124,166.425 245.124 C 166.593 245.124,166.730 245.889,166.730 246.823 M182.506 247.228 C 182.510 248.069,182.588 248.368,182.680 247.892 C 182.771 247.417,182.768 246.728,182.672 246.363 C 182.576 245.997,182.501 246.386,182.506 247.228 M64.627 268.260 C 64.627 270.937,64.777 272.658,65.010 272.658 C 65.242 272.658,65.392 270.937,65.392 268.260 C 65.392 265.583,65.242 263.862,65.010 263.862 C 64.777 263.862,64.627 265.583,64.627 268.260 M157.170 266.672 C 157.170 266.745,156.826 267.201,156.405 267.686 C 155.985 268.171,155.641 268.382,155.641 268.155 C 155.641 267.927,155.911 267.471,156.241 267.140 C 156.816 266.565,157.170 266.387,157.170 266.672 M149.044 273.713 C 148.466 274.071,147.992 274.491,147.992 274.646 C 147.992 274.801,147.724 274.825,147.397 274.700 C 146.722 274.441,148.465 273.111,149.522 273.078 C 149.837 273.069,149.622 273.354,149.044 273.713 M144.337 276.278 C 143.474 276.931,143.021 277.011,143.021 276.510 C 143.021 276.315,143.322 276.077,143.690 275.981 C 144.943 275.653,145.080 275.716,144.337 276.278 M87.387 281.082 C 87.552 281.348,84.769 281.464,78.806 281.439 C 73.623 281.417,69.981 281.255,69.981 281.045 C 69.981 280.538,87.074 280.574,87.387 281.082 M91.685 281.232 C 91.806 281.354,91.060 281.441,90.025 281.426 C 88.731 281.408,88.380 281.308,88.897 281.106 C 89.699 280.792,91.318 280.866,91.685 281.232 M98.279 281.071 C 98.683 281.332,98.173 281.435,96.558 281.420 C 94.926 281.405,94.485 281.304,95.029 281.071 C 96.072 280.622,97.586 280.622,98.279 281.071 M100.956 281.303 C 100.956 281.386,100.483 281.451,99.904 281.447 C 99.139 281.443,98.999 281.349,99.392 281.100 C 99.879 280.792,100.956 280.932,100.956 281.303 M108.222 281.307 C 108.222 281.387,107.232 281.431,106.023 281.403 C 104.159 281.360,104.028 281.315,105.163 281.107 C 106.433 280.874,108.222 280.991,108.222 281.307 M124.803 281.157 C 124.703 281.320,122.694 281.451,120.341 281.447 C 117.987 281.444,116.263 281.313,116.509 281.157 C 117.105 280.777,125.038 280.777,124.803 281.157 M112.906 281.341 C 112.433 281.432,111.659 281.432,111.185 281.341 C 110.712 281.249,111.099 281.175,112.046 281.175 C 112.992 281.175,113.380 281.249,112.906 281.341 M21.702 352.708 C 21.544 353.093,21.398 354.126,21.377 355.003 C 21.346 356.292,21.288 356.414,21.075 355.641 C 20.751 354.468,18.138 354.001,17.738 355.044 C 17.605 355.390,17.055 355.641,16.425 355.641 C 15.829 355.641,15.240 355.805,15.115 356.006 C 14.991 356.207,14.635 356.274,14.323 356.155 C 14.012 356.035,13.514 356.139,13.217 356.386 C 12.919 356.633,12.448 356.796,12.170 356.750 C 11.891 356.703,11.185 356.862,10.601 357.104 C 10.016 357.345,9.027 357.581,8.402 357.629 C 7.663 357.685,7.266 357.924,7.266 358.314 C 7.266 359.217,6.077 360.033,4.695 360.078 C 2.344 360.155,2.169 360.603,2.386 365.973 C 2.797 376.096,7.655 380.738,18.356 381.232 C 21.884 381.395,23.111 381.578,23.040 381.931 C 22.964 382.312,36.469 382.409,89.547 382.409 C 126.179 382.409,156.079 382.345,155.991 382.267 C 155.903 382.190,152.305 382.004,147.995 381.856 C 143.685 381.707,140.085 381.513,139.996 381.424 C 139.907 381.335,143.950 381.260,148.980 381.259 C 170.677 381.251,188.636 380.481,189.705 379.514 C 190.037 379.213,190.492 378.967,190.716 378.967 C 191.213 378.967,191.670 377.882,191.374 377.403 C 191.256 377.212,191.342 377.055,191.564 377.055 C 191.787 377.055,191.970 376.754,191.972 376.386 C 191.973 376.018,192.231 375.224,192.545 374.622 C 192.860 374.019,193.117 373.202,193.117 372.805 C 193.117 372.409,193.378 372.084,193.698 372.084 C 194.126 372.084,194.216 371.834,194.038 371.128 C 193.907 370.602,193.962 370.172,194.161 370.172 C 194.793 370.172,195.220 368.529,195.220 366.094 C 195.220 364.798,195.306 363.743,195.411 363.749 C 196.546 363.822,197.412 363.611,197.113 363.334 C 196.913 363.149,190.899 362.887,183.748 362.751 C 158.564 362.275,154.377 362.074,153.440 361.296 C 153.081 360.998,152.669 361.006,151.968 361.325 C 151.432 361.569,150.822 361.662,150.611 361.532 C 150.399 361.401,143.873 361.315,136.108 361.340 C 125.909 361.373,121.989 361.267,121.989 360.958 C 121.989 360.682,121.617 360.622,120.949 360.790 C 118.866 361.313,117.285 361.375,116.780 360.956 C 116.495 360.720,115.959 360.653,115.588 360.808 C 114.345 361.326,107.033 361.436,106.442 360.945 C 106.028 360.601,105.788 360.599,105.452 360.934 C 104.933 361.453,101.481 361.534,101.172 361.034 C 101.054 360.843,100.328 360.826,99.524 360.996 C 98.734 361.163,88.623 361.317,77.055 361.339 C 65.488 361.361,54.560 361.455,52.772 361.549 C 50.985 361.642,46.252 361.817,42.256 361.938 C 38.260 362.058,32.855 362.250,30.244 362.364 C 27.633 362.477,24.859 362.462,24.080 362.331 L 22.662 362.091 22.325 357.049 C 22.130 354.121,21.868 352.301,21.702 352.708 M23.709 359.442 C 23.709 360.506,23.854 361.377,24.031 361.377 C 24.469 361.377,24.493 357.992,24.057 357.722 C 23.866 357.604,23.709 358.378,23.709 359.442 M167.022 361.265 C 167.497 361.356,168.186 361.353,168.551 361.257 C 168.917 361.161,168.528 361.086,167.686 361.091 C 166.845 361.095,166.546 361.173,167.022 361.265 M0.164 369.025 C 0.164 369.446,0.299 369.790,0.464 369.790 C 0.630 369.790,0.765 369.446,0.765 369.025 C 0.765 368.604,0.630 368.260,0.464 368.260 C 0.299 368.260,0.164 368.604,0.164 369.025 M2.677 377.247 C 2.677 377.562,2.935 377.820,3.250 377.820 C 3.566 377.820,3.824 377.562,3.824 377.247 C 3.824 376.931,3.566 376.673,3.250 376.673 C 2.935 376.673,2.677 376.931,2.677 377.247 M5.354 377.940 C 5.354 378.006,5.913 378.565,6.597 379.183 L 7.839 380.306 6.716 379.063 C 5.669 377.905,5.354 377.644,5.354 377.940 M27.725 381.644 C 27.595 381.855,27.154 382.027,26.746 382.027 C 26.338 382.027,26.004 381.855,26.004 381.644 C 26.004 381.434,26.444 381.262,26.982 381.262 C 27.537 381.262,27.859 381.427,27.725 381.644 M137.576 381.525 C 137.211 381.620,136.522 381.624,136.047 381.532 C 135.571 381.441,135.870 381.363,136.711 381.358 C 137.553 381.354,137.942 381.429,137.576 381.525 " stroke="none" fill="#0592f7" fill-rule="evenodd"></path><path id="path4" d="M378.195 201.625 C 378.192 206.726,378.183 233.571,378.177 261.281 L 378.165 311.663 359.255 311.663 L 340.344 311.663 340.317 288.050 C 340.281 256.506,340.263 255.062,339.913 254.846 C 339.747 254.743,339.600 247.738,339.586 239.280 C 339.564 224.932,339.325 215.702,338.967 215.328 C 338.883 215.241,338.814 221.608,338.814 229.477 C 338.812 251.473,338.446 262.647,337.701 263.392 C 337.367 263.726,337.072 264.140,337.046 264.313 C 337.020 264.486,336.977 264.771,336.950 264.946 C 336.924 265.121,336.386 265.297,335.755 265.337 C 333.470 265.482,333.138 265.562,333.355 265.912 C 333.480 266.115,333.127 266.182,332.533 266.069 C 331.840 265.936,331.619 265.997,331.872 266.251 C 332.403 266.782,331.986 267.683,331.326 267.430 C 330.964 267.291,330.784 267.490,330.784 268.028 C 330.784 268.818,330.423 268.966,328.681 268.887 C 328.260 268.869,328.131 268.949,328.394 269.066 C 328.657 269.184,328.872 269.631,328.872 270.060 C 328.872 270.709,328.776 270.760,328.298 270.363 C 327.867 270.005,327.725 270.000,327.725 270.342 C 327.725 270.617,327.434 270.705,326.992 270.565 C 326.411 270.380,326.298 270.483,326.449 271.060 C 326.565 271.503,326.403 271.878,326.035 272.019 C 325.702 272.147,325.430 272.515,325.430 272.837 C 325.430 273.159,325.104 273.423,324.706 273.423 C 324.308 273.423,323.883 273.681,323.762 273.996 C 323.641 274.312,323.236 274.576,322.861 274.583 C 321.961 274.601,320.280 275.546,320.220 276.068 C 320.194 276.296,320.151 276.672,320.124 276.905 C 320.098 277.138,319.818 277.229,319.503 277.108 C 319.187 276.987,318.916 277.012,318.900 277.163 C 318.816 277.955,318.583 278.867,318.426 279.025 C 318.040 279.411,317.427 250.532,317.407 231.007 C 317.399 223.248,316.909 221.784,316.774 229.115 C 316.727 231.651,316.591 233.824,316.471 233.944 C 316.145 234.269,316.207 235.255,316.539 235.049 C 316.697 234.952,316.793 237.480,316.753 240.667 C 316.714 243.855,316.671 272.321,316.658 303.926 L 316.635 361.390 286.902 361.377 C 237.971 361.354,239.702 361.339,239.981 361.790 C 240.121 362.017,240.622 362.107,241.094 361.988 C 241.566 361.870,242.075 361.896,242.226 362.047 C 242.567 362.388,243.359 362.454,251.434 362.811 C 257.120 363.062,257.922 363.175,257.834 363.718 C 257.765 364.138,258.107 364.413,258.893 364.570 C 260.345 364.861,261.120 365.561,260.903 366.389 C 260.811 366.740,260.924 367.142,261.152 367.283 C 261.785 367.674,261.650 368.149,260.847 368.359 C 260.112 368.552,260.101 370.312,260.832 370.764 C 261.008 370.872,261.050 371.228,260.924 371.555 C 260.744 372.024,260.632 372.044,260.388 371.649 C 259.889 370.842,259.602 371.511,260.000 372.556 C 260.210 373.111,260.788 373.623,261.364 373.768 C 261.914 373.906,262.259 374.188,262.131 374.396 C 262.002 374.604,261.763 374.691,261.599 374.589 C 261.435 374.488,260.943 374.739,260.505 375.147 C 259.771 375.831,259.697 375.837,259.562 375.229 C 259.482 374.867,259.334 375.203,259.234 375.977 C 259.058 377.329,259.479 377.747,260.128 376.864 C 260.283 376.654,260.412 376.842,260.415 377.283 C 260.433 379.768,256.499 380.655,243.499 381.098 C 237.496 381.302,235.946 381.462,235.946 381.877 C 235.946 382.316,243.539 382.399,283.365 382.396 C 321.584 382.392,330.784 382.297,330.784 381.903 C 330.784 381.634,331.538 380.938,332.460 380.355 C 335.590 378.377,338.815 374.636,338.815 372.983 C 338.815 372.489,338.987 372.084,339.197 372.084 C 339.407 372.084,339.579 371.568,339.579 370.937 C 339.579 370.306,339.751 369.790,339.962 369.790 C 340.211 369.790,340.344 363.416,340.344 351.434 L 340.344 333.078 362.501 333.078 C 376.860 333.078,384.742 332.944,384.895 332.696 C 385.260 332.105,386.233 332.244,386.233 332.887 C 386.233 333.203,386.405 333.461,386.616 333.461 C 386.826 333.461,386.998 333.210,386.998 332.905 C 386.998 332.369,389.282 331.664,390.344 331.871 C 390.607 331.923,390.822 331.701,390.822 331.379 C 390.822 331.058,391.386 330.558,392.076 330.270 C 393.460 329.692,396.941 326.535,396.941 325.858 C 396.941 325.623,397.087 325.430,397.265 325.430 C 397.443 325.430,397.894 324.699,398.267 323.805 C 398.639 322.911,399.139 321.766,399.377 321.261 C 399.977 319.985,399.967 200.145,399.366 196.558 L 398.950 194.073 398.834 196.463 C 398.771 197.777,398.682 199.326,398.637 199.904 C 398.592 200.483,398.445 203.537,398.310 206.692 C 397.885 216.640,397.660 219.056,397.257 217.982 C 397.015 217.338,396.809 217.185,396.613 217.503 C 396.454 217.759,395.854 218.008,395.280 218.056 C 394.553 218.116,394.170 218.406,394.018 219.010 C 393.865 219.620,393.359 219.996,392.311 220.279 C 390.841 220.675,390.454 221.142,391.211 221.610 C 391.425 221.742,391.502 222.008,391.383 222.201 C 391.147 222.582,389.858 222.490,389.430 222.062 C 389.019 221.652,387.072 221.750,386.797 222.195 C 386.662 222.414,386.215 222.486,385.804 222.356 C 385.157 222.151,385.090 222.253,385.305 223.110 C 385.508 223.920,385.440 224.057,384.933 223.862 C 384.591 223.731,384.056 223.836,383.743 224.096 C 383.279 224.481,383.174 224.453,383.174 223.947 C 383.174 223.606,383.375 223.327,383.620 223.327 C 384.220 223.327,383.681 222.816,382.972 222.712 C 382.662 222.667,382.409 222.797,382.409 223.001 C 382.409 223.205,382.272 223.287,382.104 223.184 C 381.936 223.080,381.558 223.144,381.264 223.326 C 379.879 224.181,379.542 223.203,379.408 217.941 C 379.337 215.148,379.215 211.905,379.136 210.734 C 379.058 209.563,378.987 204.947,378.980 200.478 C 378.972 195.324,378.828 192.352,378.585 192.352 C 378.341 192.352,378.200 195.703,378.195 201.625 M316.646 219.293 C 316.638 220.115,316.749 220.306,317.057 219.999 C 317.359 219.696,317.363 219.377,317.068 218.871 C 316.709 218.252,316.657 218.304,316.646 219.293 M322.830 273.138 C 322.474 273.568,322.454 273.811,322.760 274.000 C 323.326 274.350,323.616 274.018,323.456 273.202 C 323.340 272.604,323.278 272.598,322.830 273.138 M317.281 324.570 C 317.185 324.938,317.106 324.637,317.106 323.901 C 317.106 323.164,317.185 322.863,317.281 323.231 C 317.377 323.599,317.377 324.202,317.281 324.570 M317.303 342.734 C 317.238 345.521,317.184 343.241,317.184 337.667 C 317.184 332.094,317.238 329.814,317.303 332.600 C 317.368 335.387,317.368 339.947,317.303 342.734 M317.298 353.633 C 317.220 354.632,317.155 353.815,317.155 351.816 C 317.155 349.818,317.220 349.001,317.298 350.000 C 317.377 350.999,317.377 352.634,317.298 353.633 M339.089 354.392 C 339.001 354.974,338.927 354.589,338.924 353.537 C 338.921 352.486,338.993 352.010,339.084 352.480 C 339.174 352.951,339.177 353.811,339.089 354.392 M339.088 359.751 C 339.001 360.330,338.929 359.857,338.929 358.700 C 338.929 357.543,339.001 357.070,339.088 357.648 C 339.176 358.227,339.176 359.173,339.088 359.751 M238.064 361.782 C 238.333 362.217,239.388 362.263,239.388 361.840 C 239.388 361.675,239.040 361.513,238.615 361.481 C 238.190 361.449,237.942 361.585,238.064 361.782 " stroke="none" fill="#a31ba9" fill-rule="evenodd"></path></g></svg>